<?xml version="1.0" encoding="utf-8"?>
<!-- Generator: Adobe Illustrator 16.0.0, SVG Export Plug-In . SVG Version: 6.00 Build 0)  -->
<!DOCTYPE svg PUBLIC "-//W3C//DTD SVG 1.1//EN" "http://www.w3.org/Graphics/SVG/1.1/DTD/svg11.dtd">
<svg version="1.1" id="Layer_1" xmlns="http://www.w3.org/2000/svg" xmlns:xlink="http://www.w3.org/1999/xlink" x="0px" y="0px"
	 width="320px" height="100px" viewBox="0 0 320 100" enable-background="new 0 0 320 100" xml:space="preserve">
<path fill="none" d="M177.559,53.029c0.054-0.051,0.104-0.104,0.155-0.156c0.018-0.006,0.036-0.008,0.058-0.01
	c-0.014,0.012-0.023,0.021-0.033,0.031c-0.055,0.047-0.108,0.096-0.162,0.145c-0.084,0.01-0.168,0.021-0.254,0.031
	c0.281-0.561,0.726-0.975,1.206-1.359c0.009,0.143,0.015,0.287,0.021,0.43c-0.006-0.004-0.012-0.006-0.021-0.008
	c0.13-0.139,0.038-0.27-0.012-0.398c0.093-0.098,0.186-0.195,0.278-0.291c0.023,0.064,0.046,0.127,0.071,0.191
	c0.028-0.025,0.06-0.055,0.088-0.082c-0.06-0.029-0.12-0.059-0.18-0.088c0.256-0.324,0.499-0.658,0.771-0.969
	c0.733-0.842,1.479-1.676,2.222-2.51c0.052-0.057,0.113-0.109,0.18-0.146c0.063-0.037,0.14-0.055,0.211-0.08
	c0.016,0.068,0.056,0.139,0.045,0.203c-0.062,0.436-0.13,0.873-0.202,1.309c-0.246,1.477-0.05,2.9,0.555,4.26
	c0.252,0.564,0.591,1.047,1.19,1.377c0.577,0.318,1.185,0.521,1.794,0.719c0.485,0.158,1.004,0.336,1.529,0.199
	c1.013-0.262,1.951-0.701,2.809-1.299c0.678-0.471,1.144-1.139,1.577-1.816c1.013-1.574,2.001-3.16,2.984-4.752
	c0.229-0.373,0.431-0.771,0.591-1.179c0.423-1.089,0.83-2.184,1.21-3.288c0.092-0.27,0.206-0.39,0.481-0.396
	c0.625-0.01,1.238-0.103,1.848-0.256c1.468-0.37,2.909-0.812,4.214-1.591c1.024-0.611,2.003-1.299,3.005-1.949
	c0.134-0.086,0.256-0.217,0.514-0.246c-0.304,0.589-0.563,1.094-0.819,1.602c-0.554,1.088-1.128,2.164-1.646,3.27
	c-0.529,1.127-0.988,2.287-1.495,3.425c-0.576,1.287-1.013,2.607-1.175,4.018c-0.188,1.621,0.258,3.09,1.021,4.482
	c0.286,0.525,0.732,0.871,1.364,0.904c0.109,0.006,0.212,0.027,0.176-0.139c-0.021-0.1-0.05-0.201-0.061-0.305
	c-0.074-0.734-0.113-1.455,0.464-2.047c0.122-0.125,0.172-0.318,0.259-0.479c0.174-0.318,0.345-0.639,0.526-0.953
	c0.413-0.717,0.832-1.43,1.25-2.145l-0.011-0.002c0.104-0.154,0.213-0.311,0.32-0.467c-0.015-0.016-0.044-0.033-0.042-0.047
	c0.006-0.041,0.025-0.082,0.038-0.123c0.319-0.926,0.931-1.668,1.512-2.434c0.136-0.18,0.251-0.416,0.435-0.512
	c0.346-0.18,0.546-0.48,0.75-0.767c0.501-0.699,1.049-1.355,1.665-1.959c0.123-0.121,0.181-0.309,0.271-0.465l-0.021,0.018
	c0.064,0.039,0.152,0.124,0.19,0.107c0.25-0.115,0.508-0.211,0.636-0.502c0.121-0.278,0.265-0.562,0.458-0.793
	c0.267-0.312,0.586-0.578,0.886-0.861c0.074-0.069,0.176-0.186,0.243-0.174c0.364,0.068,0.5-0.207,0.661-0.419
	c0.11-0.143,0.342-0.186,0.31-0.469c-0.012-0.118,0.229-0.271,0.37-0.392c0.025-0.02,0.117,0.037,0.178,0.059l0.018,0.04
	l-0.016-0.062c0.521-0.792,0.786-0.883,1.604-1.359c0.004,0.092,0.009,0.184,0.013,0.275c0.084-0.041,0.176-0.074,0.252-0.129
	c0.028-0.022,0.024-0.092,0.037-0.141c0.328,0.012,0.445-0.261,0.615-0.46c0.106-0.051,0.212-0.103,0.319-0.153
	c0-0.057,0.003-0.113,0.005-0.169c0.111-0.103,0.206-0.236,0.334-0.3c0.608-0.293,1.225-0.567,1.843-0.843
	c0.142-0.063,0.301-0.087,0.439-0.153c0.233-0.111,0.325,0.018,0.413,0.198c0.239,0.496,0.204,0.999,0.076,1.516
	c-0.298,1.197-0.925,2.255-1.417,3.369c-0.231,0.521-0.534,1.009-0.822,1.501c-0.287,0.492-0.61,0.965-0.891,1.46
	c-0.503,0.88-0.948,1.79-1.478,2.651c-1.325,2.158-2.159,4.494-2.574,6.975c-0.18,1.072-0.244,2.166-0.363,3.25
	c-0.143,1.277-0.038,2.539,0.245,3.789c0.08,0.355,0.182,0.707,0.26,1.059c0.064,0.295,0.021,0.375-0.256,0.471
	c-0.539,0.186-1.082,0.365-1.625,0.539c-0.741,0.238-1.496,0.436-2.226,0.705c-1.438,0.525-2.87,1.072-4.293,1.645
	c-1.199,0.482-2.459,0.801-3.636,1.352c-0.893,0.422-1.813,0.779-2.718,1.174c-2.021,0.887-4.047,1.768-6.06,2.672
	c-1.278,0.574-2.534,1.201-3.808,1.781c-1.817,0.83-3.641,1.645-5.467,2.455c-1.707,0.754-3.421,1.494-5.139,2.225
	c-0.524,0.225-1.104,0.332-1.604,0.592c-0.509,0.266-1.044,0.418-1.58,0.59c-0.271,0.088-0.551,0.193-0.774,0.361
	c-0.198,0.15-0.37,0.254-0.626,0.221c-0.123-0.014-0.274,0-0.378,0.062c-0.41,0.236-0.865,0.307-1.315,0.416
	c-0.169,0.039-0.319,0.152-0.482,0.227c-0.279,0.125-0.581,0.379-0.837,0.342c-0.371-0.055-0.599,0.184-0.902,0.232
	c-0.056,0-0.11,0-0.169,0c-0.372,0.104-0.748,0.189-1.111,0.312c-0.896,0.305-1.762,0.725-2.742,0.709
	c-0.095-0.002-0.2,0.055-0.292,0.1c-0.433,0.211-0.907,0.285-1.361,0.42c-0.739,0.225-1.504,0.381-2.237,0.625
	c-0.512,0.17-1.005,0.387-1.56,0.367c-0.025,0-0.05,0.016-0.074,0.02c-1.196,0.219-2.331,0.676-3.562,0.785
	c-1.076,0.1-2.125,0.445-3.194,0.645c-0.863,0.158-1.738,0.236-2.602,0.393c-0.393,0.07-0.828,0.029-1.156,0.334l0.019-0.016
	c-0.359,0.004-0.723-0.02-1.081,0.014c-1.52,0.146-3.036,0.318-4.553,0.465c-0.386,0.037-0.775,0.01-1.162,0.018
	c-0.776,0.021-1.555,0.033-2.329,0.08c-0.534,0.027-1.091-0.125-1.603,0.166c-0.073,0.041-0.197-0.004-0.297-0.014
	c-0.15-0.016-0.302-0.059-0.453-0.053c-0.839,0.043-1.668-0.01-2.486-0.217c-0.292-0.07-0.582-0.15-0.877-0.211
	c-0.531-0.102-1.07-0.285-1.6-0.268c-0.578,0.02-1.02-0.291-1.533-0.406c-0.051-0.01-0.105-0.008-0.152-0.027
	c-0.826-0.324-1.809-0.213-2.514-0.885c-0.016-0.016-0.049-0.033-0.062-0.027c-0.408,0.182-0.66-0.223-1.01-0.266
	c-0.073-0.008-0.154-0.096-0.211-0.078c-0.664,0.205-0.995-0.244-1.346-0.664c-0.166-0.197-0.324-0.414-0.611-0.449
	c-0.054-0.053-0.109-0.105-0.164-0.16c-0.052-0.156-0.098-0.062-0.145,0.004c-0.119-0.074-0.244-0.141-0.355-0.225
	c-0.098-0.072-0.182-0.156-0.271-0.238c-0.027-0.064-0.054-0.131-0.081-0.195c-0.022,0.064-0.046,0.127-0.068,0.189
	c-0.167-0.121-0.328-0.256-0.503-0.365c-0.92-0.568-1.496-1.4-1.881-2.393c-0.092-0.236-0.219-0.457-0.354-0.734
	c-0.076,0.686-0.1,0.887,0.135,1.314c0.348,0.633,0.676,1.312,1.168,1.818c0.787,0.811,1.699,1.502,2.572,2.227
	c0.17,0.141,0.409,0.191,0.608,0.299c0.156,0.086,0.38,0.164,0.433,0.301c0.145,0.365,0.475,0.459,0.757,0.625
	c0.354,0.207,0.716,0.4,1.073,0.6l0.023,0.049l-0.03-0.068c0.662,0.221,1.37,0.332,1.917,0.82c-0.001,0.062-0.002,0.125-0.004,0.189
	l0.029,0.01l-0.049-0.006c0.003-0.072,0.006-0.145,0.008-0.219c0.709,0.254,1.418,0.514,2.195,0.377
	c0.016,0.004,0.031,0.01,0.047,0.014c-0.021,0.002-0.045,0.004-0.066,0.006c0.029-0.078,0.061-0.154,0.092-0.229l-0.02,0.016
	c0.154,0.01,0.312,0.008,0.463,0.033c0.064,0.012,0.121,0.076,0.18,0.117c-0.05,0.045-0.107,0.084-0.148,0.137
	c-0.039,0.047-0.059,0.107-0.087,0.16c0.227,0.117,0.444,0.264,0.686,0.338c0.122,0.039,0.339-0.127,0.417-0.066
	c0.097,0.07,0.11,0.236,0.294,0.275c0.452,0.1,0.901,0.15,1.368,0.068c-0.111-0.057-0.229-0.07-0.348-0.082
	c-0.182-0.02-0.199-0.105-0.109-0.252c0.039-0.061,0.047-0.145,0.07-0.219l-0.014,0.018c0.285,0,0.569-0.018,0.852-0.002
	c0.696,0.035,1.391,0.1,2.086,0.125c1.031,0.035,2.064,0.043,3.097,0.068c0.271,0.004,0.29,0.051,0.17,0.338
	c-0.028,0.07-0.233,0.08-0.08,0.219c0.187,0.172,0.368,0.168,0.659-0.021l-0.02,0.008c0.285,0.152,0.593,0.184,0.908,0.135
	c0.043-0.006,0.079-0.098,0.102-0.158c0.004-0.01-0.07-0.074-0.11-0.074c-0.202-0.004-0.405,0.021-0.606,0
	c-0.123-0.012-0.143-0.115-0.084-0.232c0.059-0.121,0.098-0.234,0.264-0.238c0.519-0.01,1.037-0.041,1.557-0.043
	c0.117-0.002,0.292,0.037,0.342,0.119c0.124,0.201,0.287,0.184,0.471,0.17c0.719-0.055,1.438-0.105,2.158-0.154
	c0.204-0.016,0.303-0.064,0.328-0.314c0.021-0.203,0.58-0.213,0.591-0.021c0.013,0.242,0.103,0.24,0.263,0.242
	c0.357,0.002,0.715,0.004,1.074,0.006c0.34,0.104,0.684,0.213,1.028,0.305c0.024,0.006,0.106-0.107,0.115-0.172
	c0.007-0.053-0.056-0.162-0.089-0.162c-0.357,0.004-0.717,0.023-1.074,0.043c0.064-0.08,0.192-0.162,0.186-0.234
	c-0.018-0.219-0.182-0.047-0.277-0.072c-0.176-0.045-0.35-0.088-0.615-0.152c0.877-0.123,1.646-0.232,2.416-0.344
	c0.767-0.107,1.531-0.275,2.303-0.322c0.761-0.047,1.476-0.469,2.425-0.254c-0.41,0.074-0.665,0.109-0.913,0.166
	c-0.05,0.012-0.111,0.119-0.103,0.168c0.012,0.057,0.093,0.135,0.15,0.141c0.1,0.012,0.202-0.023,0.304-0.033
	c0.165-0.016,0.171-0.014,0.141,0.262c-0.023,0.197,0.039,0.291,0.243,0.289c0.291-0.002,0.535-0.105,0.799-0.23
	c0.222-0.104,0.543,0.006,0.82,0.014c0.048,0,0.109-0.027,0.141-0.062c0.15-0.182,0.354-0.15,0.557-0.191
	c0.428-0.084,0.84-0.25,1.261-0.365c0.348-0.098,0.699-0.182,1.051-0.232c0.098-0.018,0.216,0.113,0.325,0.176
	c-0.06,0.012-0.118,0.021-0.18,0.031c0.017,0.01,0.039,0.031,0.048,0.027c0.038-0.025,0.076-0.051,0.112-0.078
	c0.174-0.059,0.354-0.182,0.515-0.162c0.386,0.047,0.708-0.084,1.041-0.232c0.138-0.062,0.302-0.08,0.456-0.104
	c1.138-0.205,2.262-0.48,3.353-0.846c1.202-0.398,2.464-0.549,3.66-0.955c0.737,0.123,1.311-0.398,1.998-0.514
	c0.545-0.092,1.056-0.4,1.582-0.607c0.194-0.074,0.38-0.094,0.601-0.07c0.443,0.049,0.884-0.092,1.25-0.344
	c0.583-0.393,0.571-0.412,1.118-0.422c0.285-0.006,0.558-0.047,0.769-0.279c0.062-0.068,0.15-0.127,0.238-0.146
	c0.677-0.146,1.34-0.334,1.981-0.605c0.215-0.09,0.443-0.148,0.665-0.223c0.535-0.18,1.076-0.342,1.602-0.547
	c0.715-0.275,1.417-0.584,2.125-0.875c0.843-0.344,1.689-0.67,2.523-1.023c0.983-0.418,1.945-0.877,2.931-1.283
	c2.091-0.857,4.193-1.689,6.289-2.537c2.023-0.82,4.032-1.674,6.066-2.465c4.382-1.705,8.746-3.453,13.176-5.035
	c0.072-0.025,0.14-0.072,0.213-0.094c0.16-0.047,0.284-0.021,0.408,0.121c0.78,0.906,1.558,1.818,2.368,2.693
	c1.54,1.662,3.383,2.924,5.427,3.883c1.699,0.795,3.483,1.369,5.328,1.734c0.559,0.109,1.12,0.236,1.688,0.285
	c2.429,0.215,4.831-0.125,7.235-0.385c0.901-0.1,1.797-0.25,2.69-0.402c0.767-0.133,1.537-0.264,2.289-0.467
	c1.35-0.359,2.68-0.793,3.964-1.344c1.051-0.453,2.112-0.881,3.135-1.395c1.447-0.727,2.643-1.818,3.863-2.865
	c0.058-0.051,0.14-0.104,0.157-0.168c0.146-0.516,0.52-0.896,0.779-1.34c0.104-0.178,0.178-0.365,0.036-0.58
	c-0.064-0.1-0.061-0.246-0.082-0.373c-0.224-1.295-0.655-2.514-1.411-3.598c-0.565-0.812-1.339-1.383-2.266-1.711
	c-1.981-0.705-4.044-1.072-6.121-1.348c-0.877-0.113-1.766-0.121-2.636-0.26c-1.115-0.182-2.229-0.154-3.347-0.152
	c-1.301,0.002-2.6,0.025-3.901,0.08c-0.881,0.037-1.758,0.139-2.641,0.225c-0.28,0.029-0.561,0.164-0.838,0.15
	c-1.234-0.059-2.427,0.248-3.638,0.381c-1.941,0.213-3.832,0.713-5.728,1.166c-1.314,0.316-2.618,0.662-3.928,0.986
	c-0.364,0.094-0.46,0.07-0.605-0.275c-0.228-0.549-0.436-1.111-0.605-1.682c-0.34-1.137-0.344-2.307-0.332-3.48
	c0.011-0.844,0.183-1.648,0.428-2.445c0.452-1.451,1.146-2.783,1.932-4.076c0.379-0.619,0.731-1.258,1.072-1.9
	c0.463-0.871,0.865-1.777,1.358-2.63c1.021-1.762,1.865-3.594,2.414-5.557c0.296-1.055,0.29-2.102-0.082-3.14
	c-0.115-0.329-0.302-0.575-0.605-0.776c-0.664-0.436-1.334-0.772-2.172-0.679c-0.678,0.077-1.338,0.183-1.966,0.454
	c-1.625,0.703-3.226,1.447-4.563,2.645c-0.134,0.121-0.285,0.225-0.432,0.334c-1.168,0.869-2.261,1.83-3.305,2.843
	c-0.896,0.868-1.777,1.755-2.67,2.626c-0.082,0.078-0.21,0.105-0.317,0.155l-0.008,0.021c0.155-0.33,0.287-0.669,0.467-0.984
	c0.591-1.038,1.162-2.088,1.807-3.095c0.656-1.025,1.188-2.124,1.929-3.102c0.549-0.725,0.932-1.563,1.243-2.417
	c0.43-1.164-0.205-2.029-1.328-2.079c-0.235-0.011-0.469,0.026-0.702,0.015c-0.225-0.013-0.402,0.049-0.565,0.203
	c-0.394,0.376-0.825,0.719-1.19,1.12c-1.062,1.162-2.299,2.114-3.573,3.017c-0.956,0.677-1.97,1.255-3.05,1.727
	c-0.975,0.426-1.912,0.942-2.88,1.384c-0.758,0.343-1.539,0.63-2.364,0.767c-0.18,0.03-0.363,0.043-0.545,0.043
	c-0.192,0.002-0.252-0.104-0.238-0.303c0.046-0.568,0.068-1.141,0.091-1.712c0.004-0.128-0.002-0.269-0.049-0.384
	c-0.269-0.646-0.461-1.318-0.859-1.912c-0.349-0.521-0.676-1.045-1.167-1.449c-0.152-0.125-0.233-0.338-0.355-0.506
	c-0.162-0.224-0.422,0.002-0.567-0.091c-0.142-0.094-0.156-0.384-0.298-0.487c-0.275-0.197-0.79-0.093-1.061,0.146
	c-0.553,0.488-0.939,1.102-1.264,1.754c-0.384,0.767-0.727,1.554-0.841,2.418c-0.034,0.258-0.14,0.287-0.371,0.129
	c-0.087-0.059-0.154-0.144-0.244-0.196c-0.693-0.417-1.396-0.552-2.105-0.03c-0.229,0.169-0.485,0.309-0.694,0.5
	c-0.65,0.597-1.21,1.273-1.722,1.992c-0.696,0.98-1.167,2.084-1.71,3.146c-0.128,0.253-0.26,0.519-0.45,0.723
	c-0.567,0.609-1.163,1.193-1.751,1.782c-0.624,0.627-1.258,1.243-1.873,1.877c-1.379,1.418-2.748,2.842-4.123,4.262
	c-0.219,0.225-0.456,0.43-0.665,0.66c-0.936,1.047-1.856,2.107-2.798,3.146c-1.293,1.428-2.596,2.848-3.902,4.26
	c-1.186,1.277-2.392,2.537-3.58,3.812c-0.756,0.811-1.709,1.26-2.76,1.529c-0.273,0.07-0.563,0.084-0.847,0.121
	c-0.245,0.027-0.397-0.1-0.474-0.314c-0.229-0.641-0.389-1.281-0.267-1.98c0.343-1.969,1.014-3.814,1.998-5.545
	c0.644-1.129,1.295-2.252,1.972-3.357c0.517-0.842,1.07-1.662,1.63-2.475c0.734-1.07,1.489-2.127,2.242-3.184
	c0.847-1.186,1.612-2.412,2.224-3.741c0.5-1.082,0.834-2.177,0.782-3.376c-0.024-0.609-0.134-1.197-0.497-1.689
	c-0.601-0.817-1.232-1.61-1.857-2.407c-0.497-0.634-1.011-1.255-1.498-1.895c-0.138-0.181-0.262-0.399-0.306-0.618
	c-0.076-0.402-0.243-0.736-0.541-1.01c-0.132-0.123-0.14-0.242-0.074-0.414c0.202-0.533,0.378-1.078,0.57-1.615
	c0.439-1.227,0.752-2.485,0.984-3.764c0.157-0.865,0.201-1.748,0.453-2.603c0.105-0.363,0.132-0.787,0.062-1.158
	c-0.157-0.84-0.367-1.675-0.617-2.492c-0.118-0.386-0.289-0.785-0.665-1.027c-0.469-0.3-0.965-0.505-1.528-0.508
	c-0.4-0.003-0.754,0.04-1.026,0.413c-0.159,0.221-0.454,0.34-0.658,0.536c-0.316,0.304-0.693,0.587-0.891,0.962
	c-0.394,0.755-0.679,1.568-1.011,2.354c-0.565,1.331-0.879,2.726-0.857,4.166c0.013,0.875-0.004,1.77,0.298,2.622
	c0.294,0.834,0.603,1.663,1.061,2.423c0.186,0.311,0.382,0.627,0.634,0.877c0.389,0.384,0.311,0.392,0.073,0.782
	c-0.855,1.401-1.877,2.683-2.882,3.979c-0.876,1.129-1.768,2.246-2.655,3.369c-1.631,2.058-3.235,4.14-4.911,6.164
	c-1.145,1.389-2.516,2.553-3.994,3.584c-0.277,0.195-0.538,0.41-0.811,0.611c-0.125,0.096-0.239,0.088-0.304-0.07
	c-0.057-0.145-0.134-0.291-0.14-0.439c-0.021-0.598-0.01-1.189,0.14-1.781c0.234-0.914,0.558-1.777,1.071-2.576
	c0.194-0.303,0.314-0.652,0.469-0.982c0.111-0.232,0.217-0.471,0.336-0.701c0.455-0.874,0.906-1.75,1.375-2.618
	c0.25-0.46,0.262-0.938,0.204-1.44c-0.046-0.41-0.278-0.653-0.624-0.824c-0.791-0.395-2.443-0.18-3.002,0.457
	c-0.267,0.303-0.606,0.477-0.955,0.654c-1.014,0.52-1.848,1.273-2.564,2.135c-0.293,0.353-0.527,0.763-0.894,1.049
	c-0.453,0.353-0.807,0.791-1.154,1.24c-0.081,0.102-0.167,0.207-0.271,0.279c-0.451,0.314-0.751,0.771-1.115,1.166
	c-0.649,0.705-1.204,1.508-1.901,2.16c-1.033,0.965-1.883,2.082-2.82,3.125c-0.487,0.541-0.979,1.078-1.472,1.615
	c-0.085,0.092-0.179,0.193-0.329,0.113l0.018,0.014c0.354-1.383,1.063-2.604,1.896-3.729c1.021-1.379,2.146-2.678,3.249-3.994
	c0.7-0.834,1.461-1.617,2.162-2.452c1.074-1.281,2.498-1.999,4.018-2.577c0.589,0.01,1.022-0.316,1.461-0.651
	c0.144-0.109,0.33-0.167,0.348-0.374c0.025-0.26,0.059-0.522-0.109-0.754c-0.351-0.486-0.938-0.6-1.404-0.9
	c-0.02-0.011-0.056-0.006-0.078,0.004c-0.322,0.164-0.527-0.137-0.791-0.207c-0.047-0.014-0.114-0.131-0.099-0.165
	c0.115-0.241-0.05-0.292-0.208-0.271c-0.615,0.086-1.242,0.141-1.838,0.308c-1.207,0.343-2.31,0.932-3.386,1.573
	c-1.597,0.95-3.022,2.119-4.355,3.408c-1.628,1.574-3.254,3.15-4.887,4.72c-1.39,1.338-2.687,2.76-3.942,4.223
	c-1.472,1.719-2.933,3.449-4.426,5.152c-0.582,0.662-1.238,1.258-1.865,1.881c-0.045,0.043-0.133,0.047-0.203,0.053
	c-0.011,0.002-0.043-0.084-0.043-0.129c0.007-1.406,0.162-2.789,0.514-4.156c0.193-0.75,0.311-1.52,0.447-2.283
	c0.07-0.383,0.098-0.773,0.168-1.154c0.13-0.717,0.309-1.424,0.404-2.145c0.065-0.484,0.046-0.984,0.025-1.477
	c-0.014-0.359-0.11-0.717-0.136-1.08c-0.032-0.467-0.261-0.824-0.536-1.184c-0.227-0.293-0.556-0.4-0.814-0.285
	c-0.503,0.223-1.014,0.146-1.521,0.207c-0.255,0.029-0.511,0.098-0.756,0.182c-1.977,0.67-3.715,1.73-5.223,3.176
	c-1.635,1.568-3.102,3.293-4.641,4.951c-0.173,0.188-0.323,0.396-0.58,0.715c0.044-0.289,0.051-0.434,0.088-0.57
	c0.274-1.002,0.549-2.004,0.834-3.004c0.654-2.297,1.278-4.602,1.982-6.884c0.734-2.383,1.531-4.746,2.334-7.107
	c0.275-0.809,0.668-1.576,0.977-2.374c0.393-1.017,0.758-2.044,1.129-3.069c0.109-0.301,0.281-0.529,0.541-0.733
	c1.123-0.888,2.232-1.794,3.334-2.708c1.171-0.974,2.336-1.958,3.287-3.164c0.059-0.06,0.117-0.12,0.178-0.179
	c0.053-0.051,0.105-0.1,0.158-0.151c0.045-0.078,0.107-0.15,0.133-0.234c0.136-0.464,0.447-0.798,0.933-0.982
	c0.007,0.004,0.014,0.009,0.021,0.015c-0.014-0.008-0.028-0.016-0.043-0.023c0.02-0.048,0.028-0.105,0.061-0.142
	c0.573-0.629,1.148-1.253,1.727-1.877c0.027-0.03,0.095-0.024,0.143-0.036c0.027,0.129,0.065,0.265,0.217,0.106
	c0.056-0.058,0.056-0.169,0.081-0.256c0.196-0.056,0.034-0.106-0.002-0.158c0.236-0.306,0.464-0.616,0.71-0.914
	c0.396-0.482,0.793-0.964,1.208-1.432c0.401-0.454,0.66-1.028,1.224-1.354c0.163-0.094,0.172-0.426,0.305-0.609
	c0.117-0.161,0.367-0.233,0.46-0.4c0.263-0.474,0.519-0.961,0.7-1.47c0.238-0.656,0.391-1.342,0.6-2.01
	c0.279-0.889,0.316-1.747,0.025-2.667c-0.195-0.617-0.458-0.812-1.105-0.87c-0.273-0.023-0.564,0.047-0.836,0.121
	c-0.351,0.096-0.68,0.266-1.031,0.36c-2.679,0.724-4.811,2.293-6.644,4.312c-1.067,1.177-2.032,2.436-2.9,3.768
	c-1.181,1.809-2.394,3.598-3.351,5.539c-1.219,2.472-2.421,4.952-3.617,7.435c-0.176,0.363-0.404,0.646-0.73,0.887
	c-0.819,0.6-1.613,1.232-2.422,1.846c-1.633,1.243-3.198,2.576-4.892,3.74c-0.622,0.426-1.249,0.843-1.868,1.272
	c-1.623,1.126-3.221,2.284-4.904,3.327c-2.573,1.592-5.285,2.912-7.977,4.279c-0.207,0.105-0.359,0.104-0.566-0.035
	c-1.3-0.873-2.75-1.467-4.145-2.162c-0.869-0.432-1.681-0.939-2.436-1.537c-0.542-0.428-0.91-0.971-1.027-1.685
	c-0.186-1.123-0.105-2.228,0.146-3.327c0.052-0.225,0.132-0.455,0.251-0.652c0.307-0.512,0.588-1.053,0.976-1.5
	c0.831-0.963,1.688-1.907,2.597-2.796c1.396-1.367,2.996-2.495,4.601-3.597c1.54-1.058,3.144-2.03,4.872-2.76
	c0.424-0.18,0.848-0.395,1.326-0.406c0.273-0.008,0.352,0.062,0.277,0.311c-0.148,0.498-0.301,0.996-0.486,1.481
	c-0.287,0.752-0.607,1.491-0.901,2.241c-0.053,0.135-0.106,0.322-0.054,0.434c0.145,0.3,0.336,0.58,0.528,0.854
	c0.217,0.309,0.554,0.234,0.858,0.215c0.248-0.014,0.311-0.205,0.387-0.42c0.295-0.826,0.496-1.693,1.052-2.41
	c0.157-0.203,0.284-0.443,0.371-0.685c0.27-0.759,0.851-1.283,1.362-1.858c0.218-0.244,0.264-0.373,0.078-0.595
	c-0.472-0.557-0.891-1.143-1.229-1.793c-0.146-0.282-0.415-0.53-0.741-0.505c-0.679,0.052-1.339-0.087-2.005-0.134
	c-1.314-0.092-2.58,0.082-3.823,0.491c-0.469,0.154-0.935,0.319-1.41,0.442c-1.087,0.278-2.077,0.786-3.079,1.267
	c-0.279,0.135-0.521,0.344-0.797,0.483c-1.613,0.808-3.041,1.872-4.357,3.093c-0.664,0.616-1.324,1.238-1.958,1.887
	c-0.523,0.537-1.062,1.075-1.496,1.682c-0.852,1.188-1.501,2.488-1.896,3.903c-0.278,0.994-0.276,2.001-0.144,3.017
	c0.105,0.81,0.449,1.543,0.734,2.293c0.236,0.619,0.678,1.119,1.288,1.405c0.239,0.112,0.436,0.257,0.647,0.405
	c0.979,0.684,1.976,1.343,2.973,2.001c0.215,0.145,0.449,0.264,0.688,0.363c0.882,0.363,1.774,0.707,2.656,1.074
	c0.433,0.178,0.858,0.373,1.272,0.588c0.283,0.145,0.283,0.287,0.029,0.443c-0.154,0.094-0.32,0.174-0.479,0.26
	c-2.396,1.311-4.806,2.596-7.183,3.941c-1.515,0.855-3.005,1.76-4.464,2.707c-1.309,0.848-2.65,1.668-3.753,2.791
	c-0.71,0.721-1.391,1.477-2.024,2.268c-0.468,0.584-0.896,1.227-1.115,1.955c-0.414,1.379-0.654,2.783-0.57,4.229
	c0.021,0.357,0.086,0.729,0.205,1.066c0.215,0.611,0.461,1.217,0.742,1.801c0.156,0.32,0.373,0.633,0.629,0.879
	c0.871,0.834,1.846,1.488,3.037,1.818c1.342,0.373,2.679,0.637,4.075,0.406c0.689-0.113,1.381-0.232,2.075-0.305
	c1.218-0.137,2.398-0.414,3.559-0.797c1.686-0.551,3.313-1.252,4.836-2.152c2.353-1.391,4.357-3.172,5.888-5.471
	c1.561-2.346,2.401-4.891,2.28-7.717c-0.057-1.305-0.288-2.584-0.865-3.773c-0.534-1.104-1.152-2.154-2.009-3.051
	c-0.349-0.365-0.345-0.459,0.062-0.713c0.641-0.396,1.286-0.793,1.951-1.148c2.368-1.26,4.658-2.654,6.858-4.184
	c2.668-1.858,5.285-3.79,7.921-5.694c0.421-0.305,0.823-0.635,1.234-0.953l-0.019-0.02c-0.052,0.247-0.074,0.505-0.159,0.74
	c-0.288,0.779-0.581,1.559-0.902,2.325c-1.081,2.569-1.888,5.226-2.585,7.917c-0.752,2.895-1.356,5.818-1.869,8.76
	c-0.259,1.486-0.414,2.982-0.433,4.496c-0.01,0.887,0.324,1.641,0.883,2.271c0.304,0.342,0.522,0.699,0.708,1.1
	c0.119,0.256,0.271,0.494,0.42,0.734c0.013,0.02,0.17-0.014,0.174-0.037c0.035-0.203,0.033-0.414,0.076-0.615
	c0.044-0.197,0.07-0.469,0.205-0.568c0.416-0.305,0.492-0.781,0.701-1.189c0.569-1.109,1.049-2.275,1.71-3.324
	c0.925-1.473,1.888-2.934,3.071-4.223c0.511-0.557,1.059-1.078,1.563-1.639c0.308-0.34,0.566-0.723,0.849-1.088
	c0.211,0,0.318-0.102,0.307-0.316c0.055-0.053,0.107-0.107,0.162-0.162c0.389-0.027,0.536-0.35,0.73-0.609
	c0.013-0.018-0.07-0.107-0.109-0.164c0.277-0.402,0.605-0.744,1.074-0.924c0.113,0.127,0.226,0.252,0.352,0.014
	c0.062-0.051,0.127-0.102,0.19-0.152c0.015-0.01,0.028-0.02,0.044-0.027c-0.009,0.014-0.018,0.027-0.026,0.041
	c-0.063,0.053-0.126,0.107-0.188,0.162c-0.131-0.006-0.262-0.014-0.392-0.021c0.158-0.162,0.294-0.357,0.477-0.484
	c0.469-0.328,0.952-0.635,1.442-0.93c0.209-0.127,0.389-0.367,0.691-0.258c0.009,0.258,0.041,0.516,0.02,0.77
	c-0.015,0.205-0.09,0.406-0.146,0.605c-0.092,0.324-0.207,0.643-0.281,0.973c-0.216,0.961-0.358,1.941-0.638,2.883
	c-0.35,1.182-0.463,2.393-0.586,3.605c-0.121,1.174,0.109,2.33,0.222,3.492c0.044,0.465,0.231,0.908,0.521,1.291
	c0.854,1.119,1.513,1.139,2.583,0.84c0.173-0.049,0.341-0.152,0.513-0.156c0.5-0.014,0.898-0.236,1.266-0.541
	c0.619-0.518,1.236-1.035,1.851-1.557c0.139-0.119,0.264-0.25,0.39-0.383c1.361-1.434,2.603-2.971,3.814-4.531
	c1.165-1.5,2.336-2.996,3.691-4.334c0.204-0.201,0.412-0.396,0.625-0.588c0.021-0.021,0.084-0.006,0.125,0.004
	c0.014,0.004,0.031,0.049,0.025,0.068c-0.031,0.125-0.064,0.25-0.103,0.371c-0.267,0.875-0.429,1.764-0.404,2.686
	c0.019,0.75,0.348,1.355,0.843,1.873c0.412,0.43,0.87,0.816,1.314,1.215c0.174,0.156,0.352,0.311,0.547,0.439
	c0.301,0.195,0.951,0.18,1.164-0.045c0.783-0.834,1.631-1.623,2.314-2.531c1.598-2.123,3.346-4.111,5.121-6.08
	c0.118-0.131,0.197-0.293,0.293-0.443c0.057-0.057,0.113-0.113,0.169-0.17c0.053-0.053,0.107-0.104,0.159-0.156
	c0.055-0.051,0.107-0.102,0.16-0.154c0.263-0.176,0.441-0.404,0.52-0.721c0.052-0.213,0.188-0.375,0.45-0.318l-0.019-0.02
	c-0.014,0.045-0.014,0.088,0,0.131c-0.02,0.016-0.058,0.037-0.056,0.049c0.011,0.043,0.033,0.082,0.054,0.123
	c-0.033,0.203-0.049,0.412-0.104,0.607c-0.372,1.326-0.433,2.654-0.046,3.984c0.193,0.668,0.567,1.184,1.205,1.537
	c0.796,0.443,1.67,0.547,2.532,0.711c0.22,0.041,0.462-0.033,0.692-0.057c0.281-0.031,0.562-0.102,0.842-0.094
	c0.65,0.02,1.229-0.176,1.749-0.543c0.487-0.344,0.978-0.695,1.421-1.092c0.754-0.674,1.541-1.32,2.164-2.129
	c2.163-2.797,4.338-5.583,6.479-8.4c1.242-1.633,2.461-3.289,3.533-5.047c0.107-0.176,0.227-0.344,0.371-0.561
	c0.146,0.154,0.287,0.27,0.386,0.414c0.577,0.849,1.392,1.469,2.11,2.176c0.332,0.328,0.438,0.62,0.269,1.025
	c-0.099,0.236-0.188,0.49-0.347,0.685c-0.322,0.405-0.702,0.765-1.034,1.161c-0.783,0.938-1.547,1.891-2.207,2.921
	c-0.841,1.313-1.693,2.622-2.502,3.956c-0.551,0.91-1.096,1.832-1.535,2.797c-0.734,1.605-1.376,3.254-2.07,4.879
	c-0.725,1.703-1.03,3.477-1.001,5.322c0.014,0.852,0.186,1.656,0.521,2.422c0.397,0.902,0.928,1.641,1.965,1.969
	c0.661,0.209,1.291,0.324,1.977,0.295c0.558-0.023,1.057-0.25,1.59-0.346c1.573-0.295,2.802-1.18,3.922-2.26
	c0.092-0.09,0.154-0.209,0.236-0.311c0.098-0.119,0.197-0.242,0.306-0.354c0.81-0.842,1.646-1.66,2.431-2.523
	c0.928-1.02,1.816-2.074,2.707-3.125c0.958-1.131,1.89-2.283,2.855-3.406c0.211-0.244,0.4-0.459,0.422-0.797
	c0.004-0.076,0.122-0.145,0.188-0.219c0.026,0.059,0.054,0.117,0.08,0.176c0.021-0.057,0.044-0.113,0.064-0.172
	c0.054-0.051,0.107-0.102,0.161-0.154c0.052-0.053,0.103-0.105,0.154-0.158s0.105-0.105,0.155-0.158
	c0.184-0.125,0.372-0.242,0.541-0.383c0.022-0.02-0.048-0.15-0.074-0.229c0.095-0.189,0.154-0.414,0.43-0.418
	C177.412,53.062,177.486,53.047,177.559,53.029z"/>
<path fill="none" d="M181.129,49.072c0.063-0.037,0.126-0.072,0.189-0.109c0.052-0.049,0.105-0.094,0.158-0.141
	c0.05-0.055,0.1-0.111,0.149-0.166c0.03-0.029,0.064-0.061,0.093-0.094c0.005-0.006-0.021-0.031-0.033-0.049
	c-0.012,0.055-0.023,0.109-0.039,0.164c-0.113-0.006-0.178,0.033-0.15,0.16c-0.054,0.041-0.109,0.084-0.163,0.125
	c-0.072,0.043-0.145,0.088-0.217,0.131c-0.005,0.008-0.009,0.016-0.015,0.023C181.111,49.102,181.12,49.086,181.129,49.072z"/>
<path fill="none" d="M125.961,84.459c0.006,0.012,0.014,0.021,0.021,0.031c-0.013-0.016-0.022-0.031-0.034-0.047l-0.01-0.037
	L125.961,84.459z"/>
<polygon fill="none" points="128.016,83.658 128.035,83.629 128.027,83.656 127.986,83.684 "/>
<polygon fill="none" points="209.434,46.452 209.46,46.426 209.441,46.457 209.406,46.485 "/>
<path fill="none" d="M123.768,25.021c-0.006,0.007-0.014,0.013-0.02,0.018c0.018,0.003,0.035,0.007,0.053,0.011
	C123.789,25.042,123.778,25.031,123.768,25.021z"/>
<path fill="none" d="M130.488,86.791l0.025,0.006l-0.041,0.014c-0.025-0.037-0.053-0.068-0.078-0.104
	C130.426,86.734,130.459,86.762,130.488,86.791z"/>
<path fill="none" d="M207.839,48.139c-0.006,0.053-0.015,0.105-0.022,0.16c0-0.047,0-0.094,0-0.143
	c0.017,0.008,0.033,0.014,0.048,0.021C207.856,48.164,207.848,48.152,207.839,48.139z"/>
<path fill="none" d="M123.271,25.475c-0.02,0.046-0.041,0.092-0.058,0.138c-0.001,0.007,0.027,0.024,0.042,0.036
	c0-0.064,0-0.128,0-0.192c0.043-0.001,0.089-0.002,0.133-0.003C123.35,25.461,123.311,25.468,123.271,25.475z"/>
<path fill="none" d="M146.441,88.178c0.07-0.021,0.14-0.043,0.21-0.061l-0.013,0.057l0.014-0.039
	c-0.032-0.064-0.051-0.146-0.1-0.191c-0.046-0.037-0.127-0.033-0.191-0.049c0.002,0.061-0.009,0.127,0.01,0.186
	c0.012,0.045,0.059,0.08,0.09,0.117l-0.051,0.023L146.441,88.178z"/>
<path fill="none" d="M152.525,87.375l-0.054,0.025l-0.022-0.055c-0.094-0.037-0.182-0.08-0.277-0.104
	c-0.033-0.008-0.078,0.041-0.117,0.059c0.041,0.039,0.087,0.109,0.125,0.107c0.096-0.008,0.189-0.049,0.281-0.076
	c-0.043,0.059-0.088,0.117-0.128,0.178c-0.022,0.037-0.028,0.082-0.044,0.121c0.062-0.006,0.162,0.012,0.183-0.021
	c0.037-0.055,0.026-0.141,0.035-0.217c0.017,0.006,0.032,0.008,0.052,0.012C152.547,87.396,152.535,87.383,152.525,87.375z"/>
<path fill="none" d="M154.146,87.449c0.426-0.076,0.854-0.145,1.275-0.24c0.061-0.012,0.099-0.145,0.137-0.229
	c0.066-0.141-0.036-0.207-0.141-0.193c-0.255,0.029-0.45-0.037-0.622-0.234c-0.056-0.066-0.188-0.094-0.282-0.09
	c-0.521,0.02-1.043,0.049-1.514,0.436c0.479,0.084,1.054-0.125,1.165,0.566c-0.153-0.021-0.31-0.074-0.456-0.055
	c-0.383,0.049-0.146-0.15-0.123-0.268c-0.18-0.002-0.359-0.01-0.539,0c-0.014,0-0.053,0.133-0.028,0.158
	c0.085,0.09,0.19,0.227,0.287,0.227C153.586,87.533,153.865,87.479,154.146,87.449z"/>
<path fill="none" d="M151.893,87.107c0.003,0.008,0.003,0.018,0.003,0.025c0.204-0.014,0.409-0.016,0.609-0.047
	c0.05-0.006,0.088-0.094,0.132-0.145c-0.054-0.043-0.107-0.123-0.16-0.119c-0.125,0.002-0.249,0.051-0.375,0.07
	c-0.229,0.029-0.457,0.043-0.688,0.074c-0.033,0.004-0.06,0.057-0.088,0.088c0.037,0.029,0.072,0.078,0.111,0.078
	C151.588,87.133,151.74,87.117,151.893,87.107z"/>
<path fill="none" d="M146.962,87.98c0.233,0.059,0.444,0.123,0.659,0.148c0.062,0.006,0.176-0.104,0.195-0.178
	c0.014-0.055-0.078-0.178-0.146-0.203C147.398,87.652,147.189,87.799,146.962,87.98z"/>
<path fill="none" d="M149.996,88.008c0.041-0.012,0.148-0.016,0.223-0.068c0.041-0.029-0.449-0.373-0.522-0.336
	c-0.035,0.018-0.072,0.066-0.074,0.107C149.613,87.883,149.758,88.018,149.996,88.008z"/>
<path fill="none" d="M137.15,87.373c-0.076,0.01-0.131,0.01-0.176,0.029c-0.058,0.023-0.109,0.064-0.164,0.094
	c0.039,0.031,0.077,0.066,0.121,0.084c0.113,0.041,0.228,0.08,0.346,0.105c0.021,0.004,0.078-0.061,0.086-0.102
	c0.01-0.041-0.005-0.109-0.035-0.133C137.271,87.408,137.196,87.391,137.15,87.373z"/>
<path fill="none" d="M139.917,87.611c0.008,0.043,0.017,0.086,0.024,0.129c0.234-0.023,0.47-0.051,0.704-0.078
	c-0.006-0.02-0.013-0.051-0.02-0.051C140.389,87.609,140.153,87.611,139.917,87.611z"/>
<path fill="none" d="M120.527,47.695c-0.039-0.1-0.047-0.189-0.096-0.223c-0.102-0.072-0.207-0.037-0.225,0.092
	c-0.008,0.051,0.053,0.141,0.104,0.168C120.357,47.756,120.436,47.715,120.527,47.695z"/>
<path fill="none" d="M149.242,87.863c-0.046-0.062-0.07-0.127-0.1-0.129c-0.066,0-0.137,0.025-0.205,0.039
	c0.031,0.029,0.059,0.076,0.098,0.086C149.096,87.873,149.159,87.863,149.242,87.863z"/>
<path fill="none" d="M179.573,51.004c-0.052-0.064-0.074-0.092-0.097-0.123c-0.056,0.074-0.111,0.148-0.163,0.225
	c-0.002,0.004,0.042,0.047,0.048,0.045C179.434,51.105,179.501,51.055,179.573,51.004z"/>
<path fill="none" d="M131.67,86.959c-0.066,0.037-0.105,0.057-0.143,0.08c0.027,0.043,0.045,0.102,0.084,0.127
	c0.026,0.014,0.082-0.016,0.124-0.025C131.715,87.082,131.693,87.023,131.67,86.959z"/>
<path fill="none" d="M155.903,86.861c-0.021,0.039-0.058,0.082-0.058,0.121c0.002,0.043,0.039,0.086,0.062,0.127
	c0.021-0.043,0.061-0.086,0.061-0.127S155.927,86.9,155.903,86.861z"/>
<path fill="none" d="M144.723,87.969c-0.005-0.014-0.008-0.035-0.018-0.039c-0.021-0.006-0.047-0.006-0.07-0.002
	c-0.018,0.008-0.029,0.023-0.046,0.035C144.634,87.967,144.68,87.969,144.723,87.969z"/>
<path fill="none" d="M139.223,87.684c0.021-0.014,0.044-0.021,0.066-0.031c-0.043-0.016-0.084-0.033-0.128-0.041
	c-0.019-0.002-0.042,0.018-0.063,0.025C139.14,87.652,139.182,87.668,139.223,87.684z"/>
<path fill="none" d="M138.992,87.914c-0.04,0.014-0.078,0.031-0.116,0.049c0.019,0.016,0.037,0.041,0.051,0.039
	c0.039-0.008,0.077-0.027,0.115-0.041C139.025,87.943,139.008,87.928,138.992,87.914z"/>
<polygon fill="none" points="129.174,86.197 129.144,86.248 129.197,86.25 "/>
<polygon fill="none" points="114.291,52.469 114.334,52.498 114.34,52.449 "/>
<path fill-rule="evenodd" clip-rule="evenodd" stroke="#000000" stroke-width="0.5" stroke-miterlimit="10" d="M215.015,40.487
	c-0.061-0.021-0.152-0.078-0.178-0.059c-0.141,0.121-0.382,0.273-0.37,0.392c0.032,0.283-0.199,0.326-0.31,0.469
	c-0.161,0.212-0.297,0.487-0.661,0.419c-0.067-0.012-0.169,0.104-0.243,0.174c-0.3,0.283-0.619,0.549-0.886,0.861
	c-0.193,0.23-0.337,0.515-0.458,0.793c-0.128,0.291-0.386,0.387-0.636,0.502c-0.038,0.017-0.126-0.068-0.19-0.107
	c0.017,0.009,0.033,0.016,0.049,0.023c-0.01-0.014-0.02-0.027-0.028-0.041c-0.091,0.156-0.148,0.344-0.271,0.465
	c-0.616,0.604-1.164,1.26-1.665,1.959c-0.204,0.287-0.404,0.587-0.75,0.767c-0.184,0.096-0.299,0.332-0.435,0.512
	c-0.581,0.766-1.192,1.508-1.512,2.434l-0.005-0.006c-0.073,0.041-0.148,0.084-0.223,0.125c0.006-0.006,0.012-0.012,0.018-0.02
	c0.069,0.027,0.138,0.053,0.205,0.08l0.009-0.01c-0.107,0.156-0.216,0.312-0.32,0.467c-0.004-0.012-0.008-0.023-0.012-0.037
	c0.008,0.014,0.014,0.027,0.022,0.039c-0.418,0.715-0.837,1.428-1.25,2.145c-0.182,0.314-0.353,0.635-0.526,0.953
	c-0.087,0.16-0.137,0.354-0.259,0.479c-0.577,0.592-0.538,1.312-0.464,2.047c0.011,0.104,0.039,0.205,0.061,0.305
	c0.036,0.166-0.066,0.145-0.176,0.139c-0.632-0.033-1.078-0.379-1.364-0.904c-0.763-1.393-1.209-2.861-1.021-4.482
	c0.162-1.41,0.599-2.73,1.175-4.018c0.507-1.138,0.966-2.298,1.495-3.425c0.518-1.105,1.092-2.182,1.646-3.27
	c0.256-0.508,0.516-1.013,0.819-1.602c-0.258,0.029-0.38,0.16-0.514,0.246c-1.002,0.65-1.98,1.338-3.005,1.949
	c-1.305,0.779-2.746,1.221-4.214,1.591c-0.609,0.153-1.223,0.246-1.848,0.256c-0.275,0.007-0.39,0.127-0.481,0.396
	c-0.38,1.104-0.787,2.199-1.21,3.288c-0.16,0.408-0.362,0.806-0.591,1.179c-0.983,1.592-1.972,3.178-2.984,4.752
	c-0.434,0.678-0.899,1.346-1.577,1.816c-0.857,0.598-1.796,1.037-2.809,1.299c-0.525,0.137-1.044-0.041-1.529-0.199
	c-0.609-0.197-1.217-0.4-1.794-0.719c-0.6-0.33-0.938-0.812-1.19-1.377c-0.604-1.359-0.801-2.783-0.555-4.26
	c0.072-0.436,0.14-0.873,0.202-1.309c0.011-0.064-0.029-0.135-0.045-0.203c-0.071,0.025-0.147,0.043-0.211,0.08
	c-0.066,0.037-0.128,0.09-0.18,0.146c-0.743,0.834-1.488,1.668-2.222,2.51c-0.271,0.311-0.515,0.645-0.771,0.969l0.021-0.021
	c-0.093,0.096-0.186,0.193-0.278,0.291l0.012-0.023c-0.48,0.385-0.925,0.799-1.206,1.359l0.018,0.01
	c-0.275,0.004-0.335,0.229-0.43,0.418l0.022-0.016c-0.06,0.062-0.122,0.123-0.182,0.184l0.024-0.025
	c-0.06,0.059-0.12,0.119-0.18,0.178l0.025-0.025c-0.06,0.062-0.122,0.121-0.182,0.182l0.017-0.021
	c-0.059,0.057-0.116,0.115-0.174,0.174l0.02-0.018c-0.059,0.059-0.116,0.117-0.176,0.176l0.021-0.021
	c-0.061,0.059-0.118,0.115-0.176,0.176l0.018-0.016c-0.06,0.059-0.119,0.117-0.18,0.176l0.02-0.023
	c-0.065,0.074-0.184,0.143-0.188,0.219c-0.021,0.338-0.211,0.553-0.422,0.797c-0.966,1.123-1.897,2.275-2.855,3.406
	c-0.891,1.051-1.779,2.105-2.707,3.125c-0.784,0.863-1.621,1.682-2.431,2.523c-0.108,0.111-0.208,0.234-0.306,0.354
	c-0.082,0.102-0.145,0.221-0.236,0.311c-1.12,1.08-2.349,1.965-3.922,2.26c-0.533,0.096-1.032,0.322-1.59,0.346
	c-0.686,0.029-1.315-0.086-1.977-0.295c-1.037-0.328-1.567-1.066-1.965-1.969c-0.336-0.766-0.508-1.57-0.521-2.422
	c-0.029-1.846,0.276-3.619,1.001-5.322c0.694-1.625,1.336-3.273,2.07-4.879c0.439-0.965,0.984-1.887,1.535-2.797
	c0.809-1.334,1.661-2.643,2.502-3.956c0.66-1.03,1.424-1.983,2.207-2.921c0.332-0.396,0.712-0.756,1.034-1.161
	c0.158-0.194,0.248-0.448,0.347-0.685c0.169-0.405,0.063-0.697-0.269-1.025c-0.719-0.707-1.533-1.327-2.11-2.176
	c-0.099-0.145-0.239-0.26-0.386-0.414c-0.145,0.217-0.264,0.385-0.371,0.561c-1.072,1.758-2.291,3.414-3.533,5.047
	c-2.141,2.816-4.315,5.603-6.479,8.4c-0.623,0.809-1.41,1.455-2.164,2.129c-0.443,0.396-0.934,0.748-1.421,1.092
	c-0.521,0.367-1.099,0.562-1.749,0.543c-0.279-0.008-0.561,0.062-0.842,0.094c-0.23,0.023-0.473,0.098-0.692,0.057
	c-0.862-0.164-1.736-0.268-2.532-0.711c-0.638-0.354-1.012-0.869-1.205-1.537c-0.387-1.33-0.326-2.658,0.046-3.984
	c0.056-0.195,0.071-0.404,0.104-0.607l-0.021,0.008c0.015-0.02,0.043-0.043,0.04-0.061c-0.005-0.047-0.023-0.088-0.039-0.133
	l0.022,0.014c-0.014-0.043-0.014-0.086,0-0.131c0.006,0.006,0.013,0.014,0.019,0.02c-0.263-0.057-0.398,0.105-0.45,0.318
	c-0.078,0.316-0.257,0.545-0.52,0.721l0.014,0.021c-0.062-0.09-0.125-0.193-0.186,0.002l0.025-0.023
	c-0.11,0.062-0.227,0.115-0.329,0.188c-0.143,0.1-0.105,0.209,0.009,0.309l-0.021-0.016c-0.096,0.15-0.175,0.312-0.293,0.443
	c-1.775,1.969-3.523,3.957-5.121,6.08c-0.684,0.908-1.531,1.697-2.314,2.531c-0.213,0.225-0.863,0.24-1.164,0.045
	c-0.195-0.129-0.373-0.283-0.547-0.439c-0.444-0.398-0.902-0.785-1.314-1.215c-0.495-0.518-0.824-1.123-0.843-1.873
	c-0.024-0.922,0.138-1.811,0.404-2.686c0.038-0.121,0.071-0.246,0.103-0.371c0.006-0.02-0.012-0.064-0.025-0.068
	c-0.041-0.01-0.104-0.025-0.125-0.004c-0.213,0.191-0.421,0.387-0.625,0.588c-1.355,1.338-2.526,2.834-3.691,4.334
	c-1.212,1.561-2.453,3.098-3.814,4.531c-0.126,0.133-0.251,0.264-0.39,0.383c-0.614,0.521-1.231,1.039-1.851,1.557
	c-0.367,0.305-0.766,0.527-1.266,0.541c-0.172,0.004-0.34,0.107-0.513,0.156c-1.07,0.299-1.729,0.279-2.583-0.84
	c-0.289-0.383-0.477-0.826-0.521-1.291c-0.112-1.162-0.343-2.318-0.222-3.492c0.123-1.213,0.236-2.424,0.586-3.605
	c0.279-0.941,0.422-1.922,0.638-2.883c0.074-0.33,0.189-0.648,0.281-0.973c0.056-0.199,0.131-0.4,0.146-0.605
	c0.021-0.254-0.011-0.512-0.02-0.77c-0.303-0.109-0.482,0.131-0.691,0.258c-0.49,0.295-0.974,0.602-1.442,0.93
	c-0.183,0.127-0.318,0.322-0.477,0.484l0.021-0.016c-0.469,0.18-0.797,0.521-1.074,0.924l0.023-0.012
	c-0.062,0.062-0.123,0.125-0.184,0.186l0.029-0.027c-0.062,0.061-0.123,0.123-0.184,0.186l0.027-0.027
	c-0.207,0.018-0.312,0.139-0.338,0.338l0.021-0.025c-0.203,0.021-0.298,0.148-0.334,0.334l0.023-0.02
	c-0.061,0.059-0.119,0.117-0.178,0.176l0.008-0.023c0.001,0.061,0.002,0.121,0.002,0.182l-0.008-0.014
	c-0.282,0.365-0.541,0.748-0.849,1.088c-0.505,0.561-1.053,1.082-1.563,1.639c-1.184,1.289-2.146,2.75-3.071,4.223
	c-0.661,1.049-1.141,2.215-1.71,3.324c-0.209,0.408-0.285,0.885-0.701,1.189c-0.135,0.1-0.161,0.371-0.205,0.568
	c-0.043,0.201-0.041,0.412-0.076,0.615c-0.004,0.023-0.161,0.057-0.174,0.037c-0.148-0.24-0.301-0.479-0.42-0.734
	c-0.186-0.4-0.404-0.758-0.708-1.1c-0.559-0.631-0.893-1.385-0.883-2.271c0.019-1.514,0.174-3.01,0.433-4.496
	c0.513-2.941,1.117-5.865,1.869-8.76c0.697-2.691,1.504-5.347,2.585-7.917c0.321-0.767,0.614-1.546,0.902-2.325
	c0.085-0.235,0.107-0.493,0.159-0.74c0.006,0.006,0.012,0.013,0.019,0.02c-0.411,0.318-0.813,0.648-1.234,0.953
	c-2.636,1.904-5.253,3.836-7.921,5.694c-2.2,1.53-4.49,2.924-6.858,4.184c-0.665,0.355-1.311,0.752-1.951,1.148
	c-0.407,0.254-0.411,0.348-0.062,0.713c0.856,0.896,1.475,1.947,2.009,3.051c0.577,1.189,0.809,2.469,0.865,3.773
	c0.121,2.826-0.72,5.371-2.28,7.717c-1.53,2.299-3.535,4.08-5.888,5.471c-1.522,0.9-3.15,1.602-4.836,2.152
	c-1.16,0.383-2.341,0.66-3.559,0.797c-0.694,0.072-1.386,0.191-2.075,0.305c-1.396,0.23-2.733-0.033-4.075-0.406
	c-1.191-0.33-2.166-0.984-3.037-1.818c-0.256-0.246-0.473-0.559-0.629-0.879c-0.281-0.584-0.527-1.189-0.742-1.801
	c-0.119-0.338-0.184-0.709-0.205-1.066c-0.084-1.445,0.156-2.85,0.57-4.229c0.219-0.729,0.647-1.371,1.115-1.955
	c0.634-0.791,1.314-1.547,2.024-2.268c1.103-1.123,2.444-1.943,3.753-2.791c1.459-0.947,2.949-1.852,4.464-2.707
	c2.377-1.346,4.786-2.631,7.183-3.941c0.158-0.086,0.324-0.166,0.479-0.26c0.254-0.156,0.254-0.299-0.029-0.443
	c-0.414-0.215-0.84-0.41-1.272-0.588c-0.882-0.367-1.774-0.711-2.656-1.074c-0.239-0.1-0.474-0.219-0.688-0.363
	c-0.997-0.658-1.993-1.318-2.973-2.001c-0.212-0.148-0.408-0.293-0.647-0.405c-0.61-0.286-1.052-0.786-1.288-1.405
	c-0.285-0.75-0.629-1.483-0.734-2.293c-0.133-1.016-0.135-2.022,0.144-3.017c0.396-1.415,1.045-2.716,1.896-3.903
	c0.435-0.606,0.973-1.145,1.496-1.682c0.634-0.648,1.294-1.271,1.958-1.887c1.316-1.221,2.744-2.285,4.357-3.093
	c0.276-0.14,0.518-0.349,0.797-0.483c1.002-0.481,1.992-0.988,3.079-1.267c0.476-0.123,0.941-0.288,1.41-0.442
	c1.243-0.409,2.509-0.583,3.823-0.491c0.666,0.047,1.326,0.186,2.005,0.134c0.326-0.025,0.595,0.223,0.741,0.505
	c0.338,0.65,0.757,1.237,1.229,1.793c0.186,0.222,0.14,0.351-0.078,0.595c-0.512,0.575-1.093,1.1-1.362,1.858
	c-0.087,0.241-0.214,0.481-0.371,0.685c-0.556,0.717-0.757,1.584-1.052,2.41c-0.076,0.215-0.139,0.406-0.387,0.42
	c-0.305,0.02-0.642,0.094-0.858-0.215c-0.192-0.273-0.384-0.554-0.528-0.854c-0.053-0.111,0.001-0.299,0.054-0.434
	c0.294-0.75,0.614-1.489,0.901-2.241c0.186-0.485,0.338-0.983,0.486-1.481c0.074-0.248-0.004-0.318-0.277-0.311
	c-0.479,0.012-0.902,0.227-1.326,0.406c-1.729,0.729-3.332,1.702-4.872,2.76c-1.604,1.102-3.204,2.229-4.601,3.597
	c-0.909,0.889-1.766,1.833-2.597,2.796c-0.388,0.447-0.669,0.988-0.976,1.5c-0.119,0.197-0.199,0.428-0.251,0.652
	c-0.251,1.1-0.331,2.204-0.146,3.327c0.117,0.714,0.485,1.257,1.027,1.685c0.755,0.598,1.566,1.105,2.436,1.537
	c1.395,0.695,2.845,1.289,4.145,2.162c0.207,0.139,0.359,0.141,0.566,0.035c2.691-1.367,5.403-2.687,7.977-4.279
	c1.684-1.043,3.281-2.201,4.904-3.327c0.619-0.43,1.246-0.847,1.868-1.272c1.693-1.164,3.259-2.497,4.892-3.74
	c0.809-0.613,1.603-1.246,2.422-1.846c0.326-0.24,0.555-0.523,0.73-0.887c1.196-2.482,2.398-4.963,3.617-7.435
	c0.957-1.941,2.17-3.73,3.351-5.539c0.868-1.332,1.833-2.59,2.9-3.768c1.833-2.019,3.965-3.588,6.644-4.312
	c0.352-0.095,0.681-0.265,1.031-0.36c0.271-0.074,0.562-0.145,0.836-0.121c0.647,0.057,0.91,0.253,1.105,0.87
	c0.291,0.921,0.254,1.779-0.025,2.667c-0.209,0.668-0.361,1.354-0.6,2.01c-0.182,0.509-0.438,0.997-0.7,1.47
	c-0.093,0.167-0.343,0.239-0.46,0.4c-0.133,0.183-0.142,0.515-0.305,0.609c-0.563,0.325-0.822,0.9-1.224,1.354
	c-0.415,0.467-0.812,0.95-1.208,1.432c-0.246,0.298-0.474,0.608-0.71,0.914l0.022-0.012c-0.062,0.063-0.123,0.125-0.184,0.188
	l0.027-0.021c-0.061,0.06-0.121,0.121-0.182,0.182l0.02-0.028c-0.048,0.011-0.115,0.006-0.143,0.036
	c-0.578,0.624-1.153,1.249-1.727,1.877c-0.032,0.036-0.041,0.094-0.061,0.142l0.022,0.009c-0.485,0.184-0.797,0.518-0.933,0.982
	c-0.025,0.084-0.088,0.157-0.133,0.234l0.014,0.02c-0.064-0.062-0.129-0.1-0.189,0.003l0.027-0.021
	c-0.1,0.046-0.199,0.093-0.298,0.14c0.045,0.066,0.091,0.132,0.134,0.199l-0.023-0.011c-0.951,1.206-2.116,2.19-3.287,3.164
	c-1.102,0.914-2.211,1.82-3.334,2.708c-0.26,0.204-0.432,0.433-0.541,0.733c-0.371,1.025-0.736,2.053-1.129,3.069
	c-0.309,0.798-0.701,1.565-0.977,2.374c-0.803,2.361-1.6,4.725-2.334,7.107c-0.704,2.283-1.328,4.587-1.982,6.884
	c-0.285,1-0.56,2.002-0.834,3.004c-0.037,0.137-0.044,0.281-0.088,0.57c0.257-0.318,0.407-0.527,0.58-0.715
	c1.539-1.658,3.006-3.383,4.641-4.951c1.508-1.445,3.246-2.506,5.223-3.176c0.245-0.084,0.501-0.152,0.756-0.182
	c0.508-0.061,1.019,0.016,1.521-0.207c0.259-0.115,0.588-0.008,0.814,0.285c0.275,0.359,0.504,0.717,0.536,1.184
	c0.025,0.363,0.122,0.721,0.136,1.08c0.021,0.492,0.04,0.992-0.025,1.477c-0.096,0.721-0.274,1.428-0.404,2.145
	c-0.07,0.381-0.098,0.771-0.168,1.154c-0.137,0.764-0.254,1.533-0.447,2.283c-0.352,1.367-0.507,2.75-0.514,4.156
	c0,0.045,0.032,0.131,0.043,0.129c0.07-0.006,0.158-0.01,0.203-0.053c0.627-0.623,1.283-1.219,1.865-1.881
	c1.493-1.703,2.954-3.434,4.426-5.152c1.256-1.463,2.553-2.885,3.942-4.223c1.633-1.57,3.259-3.146,4.887-4.72
	c1.333-1.289,2.759-2.458,4.355-3.408c1.076-0.642,2.179-1.23,3.386-1.573c0.596-0.167,1.223-0.222,1.838-0.308
	c0.158-0.021,0.323,0.029,0.208,0.271c-0.016,0.034,0.052,0.151,0.099,0.165c0.264,0.07,0.469,0.371,0.791,0.207
	c0.022-0.01,0.059-0.015,0.078-0.004c0.467,0.301,1.054,0.414,1.404,0.9c0.168,0.231,0.135,0.494,0.109,0.754
	c-0.018,0.207-0.204,0.265-0.348,0.374c-0.438,0.335-0.872,0.661-1.461,0.651c-1.52,0.578-2.943,1.296-4.018,2.577
	c-0.701,0.834-1.462,1.618-2.162,2.452c-1.103,1.316-2.229,2.615-3.249,3.994c-0.832,1.125-1.541,2.346-1.896,3.729
	c0.004,0.01,0.012,0.02,0.016,0.029c-0.012-0.016-0.021-0.029-0.033-0.043c0.15,0.08,0.244-0.021,0.329-0.113
	c0.493-0.537,0.984-1.074,1.472-1.615c0.938-1.043,1.787-2.16,2.82-3.125c0.697-0.652,1.252-1.455,1.901-2.16
	c0.364-0.395,0.664-0.852,1.115-1.166c0.104-0.072,0.19-0.178,0.271-0.279c0.348-0.449,0.701-0.887,1.154-1.24
	c0.366-0.286,0.601-0.696,0.894-1.049c0.717-0.861,1.551-1.615,2.564-2.135c0.349-0.178,0.688-0.352,0.955-0.654
	c0.559-0.637,2.211-0.852,3.002-0.457c0.346,0.171,0.578,0.414,0.624,0.824c0.058,0.502,0.046,0.98-0.204,1.44
	c-0.469,0.867-0.92,1.744-1.375,2.618c-0.119,0.23-0.225,0.469-0.336,0.701c-0.154,0.33-0.274,0.68-0.469,0.982
	c-0.514,0.799-0.837,1.662-1.071,2.576c-0.149,0.592-0.161,1.184-0.14,1.781c0.006,0.148,0.083,0.295,0.14,0.439
	c0.064,0.158,0.179,0.166,0.304,0.07c0.272-0.201,0.533-0.416,0.811-0.611c1.479-1.031,2.85-2.195,3.994-3.584
	c1.676-2.023,3.28-4.106,4.911-6.164c0.888-1.123,1.779-2.24,2.655-3.369c1.005-1.297,2.026-2.578,2.882-3.979
	c0.237-0.391,0.315-0.398-0.073-0.782c-0.252-0.25-0.448-0.566-0.634-0.877c-0.458-0.76-0.767-1.589-1.061-2.423
	c-0.302-0.853-0.285-1.747-0.298-2.622c-0.021-1.439,0.292-2.834,0.857-4.166c0.332-0.787,0.617-1.599,1.011-2.354
	c0.197-0.375,0.574-0.659,0.891-0.962c0.204-0.196,0.499-0.315,0.658-0.536c0.272-0.373,0.626-0.416,1.026-0.413
	c0.563,0.003,1.06,0.208,1.528,0.508c0.376,0.243,0.547,0.641,0.665,1.027c0.25,0.817,0.46,1.652,0.617,2.492
	c0.07,0.372,0.044,0.795-0.062,1.158c-0.252,0.855-0.296,1.738-0.453,2.603c-0.232,1.278-0.545,2.537-0.984,3.764
	c-0.192,0.537-0.368,1.082-0.57,1.615c-0.065,0.172-0.058,0.291,0.074,0.414c0.298,0.273,0.465,0.607,0.541,1.01
	c0.044,0.219,0.168,0.438,0.306,0.618c0.487,0.64,1.001,1.261,1.498,1.895c0.625,0.797,1.257,1.59,1.857,2.407
	c0.363,0.492,0.473,1.08,0.497,1.689c0.052,1.199-0.282,2.294-0.782,3.376c-0.611,1.329-1.377,2.555-2.224,3.741
	c-0.753,1.057-1.508,2.113-2.242,3.184c-0.56,0.812-1.113,1.633-1.63,2.475c-0.677,1.105-1.328,2.229-1.972,3.357
	c-0.984,1.73-1.655,3.576-1.998,5.545c-0.122,0.699,0.037,1.34,0.267,1.98c0.076,0.215,0.229,0.342,0.474,0.314
	c0.283-0.037,0.573-0.051,0.847-0.121c1.051-0.27,2.004-0.719,2.76-1.529c1.188-1.275,2.395-2.535,3.58-3.812
	c1.307-1.412,2.609-2.832,3.902-4.26c0.941-1.039,1.862-2.1,2.798-3.146c0.209-0.23,0.446-0.436,0.665-0.66
	c1.375-1.42,2.744-2.844,4.123-4.262c0.615-0.635,1.249-1.25,1.873-1.877c0.588-0.589,1.184-1.173,1.751-1.782
	c0.19-0.204,0.322-0.47,0.45-0.723c0.543-1.062,1.014-2.166,1.71-3.146c0.512-0.719,1.071-1.396,1.722-1.992
	c0.209-0.191,0.465-0.331,0.694-0.5c0.71-0.521,1.412-0.387,2.105,0.03c0.09,0.053,0.157,0.138,0.244,0.196
	c0.231,0.158,0.337,0.129,0.371-0.129c0.114-0.864,0.457-1.651,0.841-2.418c0.324-0.652,0.711-1.266,1.264-1.754
	c0.271-0.239,0.785-0.344,1.061-0.146c0.142,0.104,0.156,0.394,0.298,0.487c0.146,0.093,0.405-0.133,0.567,0.091
	c0.122,0.168,0.203,0.381,0.355,0.506c0.491,0.404,0.818,0.928,1.167,1.449c0.398,0.594,0.591,1.267,0.859,1.912
	c0.047,0.115,0.053,0.256,0.049,0.384c-0.022,0.571-0.045,1.144-0.091,1.712c-0.014,0.199,0.046,0.305,0.238,0.303
	c0.182,0,0.365-0.013,0.545-0.043c0.825-0.137,1.606-0.424,2.364-0.767c0.968-0.441,1.905-0.958,2.88-1.384
	c1.08-0.472,2.094-1.05,3.05-1.727c1.274-0.902,2.511-1.854,3.573-3.017c0.365-0.401,0.797-0.744,1.19-1.12
	c0.163-0.154,0.341-0.216,0.565-0.203c0.233,0.012,0.467-0.025,0.702-0.015c1.123,0.05,1.758,0.915,1.328,2.079
	c-0.312,0.854-0.694,1.692-1.243,2.417c-0.741,0.978-1.272,2.076-1.929,3.102c-0.645,1.007-1.216,2.057-1.807,3.095
	c-0.18,0.315-0.312,0.654-0.467,0.984l0.002,0.04l0.006-0.061c0.107-0.05,0.235-0.077,0.317-0.155
	c0.893-0.871,1.773-1.758,2.67-2.626c1.044-1.013,2.137-1.974,3.305-2.843c0.146-0.109,0.298-0.213,0.432-0.334
	c1.338-1.197,2.938-1.941,4.563-2.645c0.628-0.271,1.288-0.377,1.966-0.454c0.838-0.094,1.508,0.243,2.172,0.679
	c0.304,0.201,0.49,0.447,0.605,0.776c0.372,1.038,0.378,2.085,0.082,3.14c-0.549,1.963-1.394,3.795-2.414,5.557
	c-0.493,0.854-0.896,1.759-1.358,2.63c-0.341,0.643-0.693,1.281-1.072,1.9c-0.785,1.293-1.479,2.625-1.932,4.076
	c-0.245,0.797-0.417,1.602-0.428,2.445c-0.012,1.174-0.008,2.344,0.332,3.48c0.17,0.57,0.378,1.133,0.605,1.682
	c0.146,0.346,0.241,0.369,0.605,0.275c1.31-0.324,2.613-0.67,3.928-0.986c1.896-0.453,3.786-0.953,5.728-1.166
	c1.211-0.133,2.403-0.439,3.638-0.381c0.277,0.014,0.558-0.121,0.838-0.15c0.883-0.086,1.76-0.188,2.641-0.225
	c1.302-0.055,2.601-0.078,3.901-0.08c1.117-0.002,2.231-0.029,3.347,0.152c0.87,0.139,1.759,0.146,2.636,0.26
	c2.077,0.275,4.14,0.643,6.121,1.348c0.927,0.328,1.7,0.898,2.266,1.711c0.756,1.084,1.188,2.303,1.411,3.598
	c0.021,0.127,0.018,0.273,0.082,0.373c0.142,0.215,0.067,0.402-0.036,0.58c-0.26,0.443-0.633,0.824-0.779,1.34
	c-0.018,0.064-0.1,0.117-0.157,0.168c-1.221,1.047-2.416,2.139-3.863,2.865c-1.022,0.514-2.084,0.941-3.135,1.395
	c-1.284,0.551-2.614,0.984-3.964,1.344c-0.752,0.203-1.522,0.334-2.289,0.467c-0.894,0.152-1.789,0.303-2.69,0.402
	c-2.404,0.26-4.807,0.6-7.235,0.385c-0.567-0.049-1.129-0.176-1.688-0.285c-1.845-0.365-3.629-0.939-5.328-1.734
	c-2.044-0.959-3.887-2.221-5.427-3.883c-0.811-0.875-1.588-1.787-2.368-2.693c-0.124-0.143-0.248-0.168-0.408-0.121
	c-0.073,0.021-0.141,0.068-0.213,0.094c-4.43,1.582-8.794,3.33-13.176,5.035c-2.034,0.791-4.043,1.645-6.066,2.465
	c-2.096,0.848-4.198,1.68-6.289,2.537c-0.985,0.406-1.947,0.865-2.931,1.283c-0.834,0.354-1.681,0.68-2.523,1.023
	c-0.708,0.291-1.41,0.6-2.125,0.875c-0.525,0.205-1.066,0.367-1.602,0.547c-0.222,0.074-0.45,0.133-0.665,0.223
	c-0.642,0.271-1.305,0.459-1.981,0.605c-0.088,0.02-0.176,0.078-0.238,0.146c-0.211,0.232-0.483,0.273-0.769,0.279
	c-0.547,0.01-0.535,0.029-1.118,0.422c-0.366,0.252-0.807,0.393-1.25,0.344c-0.221-0.023-0.406-0.004-0.601,0.07
	c-0.526,0.207-1.037,0.516-1.582,0.607c-0.688,0.115-1.261,0.637-1.998,0.514c-1.196,0.406-2.458,0.557-3.66,0.955
	c-1.091,0.365-2.215,0.641-3.353,0.846c-0.154,0.023-0.318,0.041-0.456,0.104c-0.333,0.148-0.655,0.279-1.041,0.232
	c-0.161-0.02-0.341,0.104-0.515,0.162l0.02,0.02c-0.109-0.062-0.228-0.193-0.325-0.176c-0.352,0.051-0.703,0.135-1.051,0.232
	c-0.421,0.115-0.833,0.281-1.261,0.365c-0.202,0.041-0.406,0.01-0.557,0.191c-0.031,0.035-0.093,0.062-0.141,0.062
	c-0.277-0.008-0.599-0.117-0.82-0.014c-0.264,0.125-0.508,0.229-0.799,0.23c-0.204,0.002-0.267-0.092-0.243-0.289
	c0.03-0.275,0.024-0.277-0.141-0.262c-0.102,0.01-0.204,0.045-0.304,0.033c-0.058-0.006-0.139-0.084-0.15-0.141
	c-0.009-0.049,0.053-0.156,0.103-0.168c0.248-0.057,0.503-0.092,0.913-0.166c-0.949-0.215-1.664,0.207-2.425,0.254
	c-0.771,0.047-1.536,0.215-2.303,0.322c-0.77,0.111-1.539,0.221-2.416,0.344c0.266,0.064,0.439,0.107,0.615,0.152
	c0.096,0.025,0.26-0.146,0.277,0.072c0.007,0.072-0.121,0.154-0.186,0.234l0.02-0.014c-0.359-0.002-0.717-0.004-1.074-0.006
	c-0.16-0.002-0.25,0-0.263-0.242c-0.011-0.191-0.569-0.182-0.591,0.021c-0.025,0.25-0.124,0.299-0.328,0.314
	c-0.72,0.049-1.439,0.1-2.158,0.154c-0.184,0.014-0.347,0.031-0.471-0.17c-0.05-0.082-0.225-0.121-0.342-0.119
	c-0.52,0.002-1.038,0.033-1.557,0.043c-0.166,0.004-0.205,0.117-0.264,0.238c-0.059,0.117-0.039,0.221,0.084,0.232
	c0.201,0.021,0.404-0.004,0.606,0c0.04,0,0.114,0.064,0.11,0.074c-0.022,0.061-0.059,0.152-0.102,0.158
	c-0.315,0.049-0.623,0.018-0.908-0.135c-0.036-0.012-0.071-0.023-0.106-0.033c0.042,0.008,0.085,0.016,0.126,0.025
	c-0.291,0.189-0.473,0.193-0.659,0.021c-0.153-0.139,0.052-0.148,0.08-0.219c0.12-0.287,0.101-0.334-0.17-0.338
	c-1.032-0.025-2.065-0.033-3.097-0.068c-0.695-0.025-1.39-0.09-2.086-0.125c-0.282-0.016-0.566,0.002-0.852,0.002l0.014-0.018
	c-0.023,0.074-0.031,0.158-0.07,0.219c-0.09,0.146-0.072,0.232,0.109,0.252c0.119,0.012,0.236,0.025,0.348,0.082
	c-0.467,0.082-0.916,0.031-1.368-0.068c-0.184-0.039-0.197-0.205-0.294-0.275c-0.078-0.061-0.295,0.105-0.417,0.066
	c-0.241-0.074-0.459-0.221-0.686-0.338c0.028-0.053,0.048-0.113,0.087-0.16c0.041-0.053,0.099-0.092,0.148-0.137
	c-0.059-0.041-0.115-0.105-0.18-0.117c-0.151-0.025-0.309-0.023-0.463-0.033c-0.42-0.143-0.816-0.395-1.293-0.26
	c-0.031-0.25-0.273-0.135-0.394-0.23c-0.038,0-0.081,0-0.12,0.002c0.047,0,0.093,0.002,0.14,0.004
	c0.032,0.256,0.245,0.166,0.394,0.199c0.37,0.389,0.814,0.41,1.293,0.27c-0.031,0.074-0.062,0.15-0.092,0.229l0.02-0.02
	c-0.777,0.137-1.486-0.123-2.195-0.377l0.016,0.025c-0.547-0.488-1.255-0.6-1.917-0.82l0.007,0.02
	c-0.357-0.199-0.72-0.393-1.073-0.6c-0.282-0.166-0.612-0.26-0.757-0.625c-0.053-0.137-0.276-0.215-0.433-0.301
	c-0.199-0.107-0.438-0.158-0.608-0.299c-0.873-0.725-1.785-1.416-2.572-2.227c-0.492-0.506-0.82-1.186-1.168-1.818
	c-0.234-0.428-0.211-0.629-0.135-1.314c0.135,0.277,0.262,0.498,0.354,0.734c0.385,0.992,0.961,1.824,1.881,2.393
	c0.175,0.109,0.336,0.244,0.503,0.365l-0.019-0.012c0.062-0.002,0.125-0.002,0.188-0.002l-0.02,0.02
	c0.09,0.082,0.174,0.166,0.271,0.238c0.111,0.084,0.236,0.15,0.355,0.225l-0.014-0.021c0.043,0.188,0.146,0.303,0.354,0.295
	c0.025,0.031,0.052,0.064,0.078,0.096c-0.034-0.023-0.066-0.051-0.1-0.076c0.002-0.053,0.006-0.107,0.008-0.16l-0.017,0.023
	c0.286,0.035,0.444,0.252,0.61,0.449c0.351,0.42,0.682,0.869,1.346,0.664c0.057-0.018,0.138,0.07,0.211,0.078
	c0.35,0.043,0.602,0.447,1.01,0.266c0.014-0.006,0.047,0.012,0.062,0.027c0.705,0.672,1.688,0.561,2.514,0.885
	c0.047,0.02,0.102,0.018,0.152,0.027c0.514,0.115,0.955,0.426,1.533,0.406c0.529-0.018,1.068,0.166,1.6,0.268
	c0.295,0.061,0.585,0.141,0.877,0.211c0.818,0.207,1.647,0.26,2.486,0.217c0.151-0.006,0.303,0.037,0.453,0.053
	c0.1,0.01,0.224,0.055,0.297,0.014c0.512-0.291,1.068-0.139,1.603-0.166c0.774-0.047,1.553-0.059,2.329-0.08
	c0.387-0.008,0.776,0.02,1.162-0.018c1.517-0.146,3.033-0.318,4.553-0.465c0.358-0.033,0.722-0.01,1.081-0.014
	c0.067,0.029,0.134,0.074,0.204,0.082c0.117,0.008,0.24-0.008,0.357-0.012c-0.119-0.02-0.24-0.043-0.359-0.057
	c-0.072-0.008-0.146,0-0.221,0.002c0.328-0.305,0.764-0.264,1.156-0.334c0.863-0.156,1.738-0.234,2.602-0.393
	c1.069-0.199,2.118-0.545,3.194-0.645c1.23-0.109,2.365-0.566,3.562-0.785c0.024-0.004,0.049-0.02,0.074-0.02
	c0.555,0.02,1.048-0.197,1.56-0.367c0.733-0.244,1.498-0.4,2.237-0.625c0.454-0.135,0.929-0.209,1.361-0.42
	c0.092-0.045,0.197-0.102,0.292-0.1c0.98,0.016,1.847-0.404,2.742-0.709c0.363-0.123,0.739-0.209,1.111-0.312l-0.011-0.021
	c0.063,0,0.129,0,0.192,0l-0.013,0.021c0.304-0.049,0.531-0.287,0.902-0.232c0.256,0.037,0.558-0.217,0.837-0.342
	c0.163-0.074,0.313-0.188,0.482-0.227c0.45-0.109,0.905-0.18,1.315-0.416c0.104-0.062,0.255-0.076,0.378-0.062
	c0.256,0.033,0.428-0.07,0.626-0.221c0.224-0.168,0.504-0.273,0.774-0.361c0.536-0.172,1.071-0.324,1.58-0.59
	c0.499-0.26,1.079-0.367,1.604-0.592c1.718-0.73,3.432-1.471,5.139-2.225c1.826-0.811,3.649-1.625,5.467-2.455
	c1.273-0.58,2.529-1.207,3.808-1.781c2.013-0.904,4.038-1.785,6.06-2.672c0.904-0.395,1.825-0.752,2.718-1.174
	c1.177-0.551,2.437-0.869,3.636-1.352c1.423-0.572,2.855-1.119,4.293-1.645c0.729-0.27,1.484-0.467,2.226-0.705
	c0.543-0.174,1.086-0.354,1.625-0.539c0.277-0.096,0.32-0.176,0.256-0.471c-0.078-0.352-0.18-0.703-0.26-1.059
	c-0.283-1.25-0.388-2.512-0.245-3.789c0.119-1.084,0.184-2.178,0.363-3.25c0.415-2.48,1.249-4.816,2.574-6.975
	c0.529-0.861,0.975-1.771,1.478-2.651c0.28-0.495,0.604-0.968,0.891-1.46c0.288-0.492,0.591-0.98,0.822-1.501
	c0.492-1.114,1.119-2.172,1.417-3.369c0.128-0.517,0.163-1.02-0.076-1.516c-0.088-0.181-0.18-0.31-0.413-0.198
	c-0.139,0.066-0.298,0.09-0.439,0.153c-0.618,0.275-1.234,0.55-1.843,0.843c-0.128,0.063-0.223,0.197-0.334,0.3l0.014-0.007
	c-0.111,0.06-0.226,0.117-0.336,0.176l0.015-0.02c-0.007,0.021-0.019,0.045-0.017,0.066c0.002,0.043,0.015,0.082,0.022,0.125
	l-0.022-0.019c-0.17,0.199-0.287,0.472-0.615,0.46l0.015,0.016c0-0.051,0-0.1-0.002-0.148c0.012-0.035,0.021-0.068,0.032-0.103
	c-0.004,0.041-0.006,0.082-0.009,0.123c-0.121,0.042-0.241,0.084-0.361,0.126l0.023-0.02c-0.818,0.477-1.084,0.567-1.604,1.359
	L215.015,40.487z M165.659,84.135c-0.04,0.023-0.079,0.045-0.118,0.066c0.032-0.029,0.064-0.057,0.097-0.086
	c0.044-0.008,0.091-0.006,0.133-0.021c0.021-0.006,0.028-0.045,0.043-0.07c-0.021,0.004-0.05,0-0.064,0.014
	C165.717,84.068,165.688,84.1,165.659,84.135z M133.396,85.791c-0.042,0.004-0.083,0.012-0.124,0.012
	c-0.011,0-0.022-0.014-0.035-0.021c0.057,0.006,0.114,0.014,0.172,0.018c0.013,0.035,0.025,0.064,0.039,0.098
	C133.43,85.861,133.412,85.826,133.396,85.791z M162.246,84.916c0.121-0.014,0.245-0.023,0.367-0.035
	c0.022-0.002,0.045-0.02,0.066-0.029c-0.034-0.025-0.082-0.078-0.102-0.066c-0.108,0.039-0.209,0.1-0.312,0.152
	c-0.047-0.004-0.097-0.02-0.144-0.012c-0.061,0.01-0.116,0.035-0.174,0.057c0.064,0.01,0.132,0.033,0.196,0.023
	C162.182,85.002,162.212,84.947,162.246,84.916z M160.802,85.203c-0.315,0.047-0.631,0.096-0.948,0.143
	c-0.971,0.141-1.938,0.291-2.998,0.617c1.132,0.129,2.057-0.168,2.977-0.5c0.016-0.006,0.006-0.086,0.006-0.135
	c0.333,0.053,0.677,0.199,0.948-0.145c0.169,0.012,0.34,0.027,0.508,0.033c0.037,0,0.073-0.047,0.109-0.07
	c-0.04-0.025-0.08-0.078-0.114-0.072C161.126,85.109,160.964,85.16,160.802,85.203z M136.957,86.434
	c-0.073-0.023-0.146-0.057-0.22-0.062c-0.066-0.006-0.134,0.025-0.2,0.041c0.069,0.012,0.139,0.027,0.209,0.027
	c0.078,0.002,0.154-0.012,0.23-0.018c0.122,0.178,0.309,0.16,0.49,0.164c0.619,0.014,1.24,0.023,1.861,0.047
	c0.852,0.029,1.703,0.074,2.556,0.107c0.153,0.006,0.31-0.018,0.462-0.043c0.03-0.002,0.074-0.064,0.074-0.102
	c0-0.029-0.055-0.072-0.092-0.084c-0.046-0.016-0.101-0.006-0.153-0.01c-0.791-0.062-1.601,0.152-2.378-0.154
	c-0.053-0.021-0.141,0.066-0.216,0.07C138.707,86.49,137.832,86.572,136.957,86.434z M116.117,29.577
	c0.094-0.025,0.206-0.025,0.277-0.08c0.885-0.681,1.76-1.373,2.644-2.055c0.224-0.173,0.472-0.314,0.694-0.486
	c0.43-0.331,0.934-0.609,1.25-1.027c0.354-0.465,0.795-0.804,1.209-1.188c0.267-0.247,0.572-0.453,0.825-0.712
	c0.874-0.89,1.743-1.784,2.593-2.697c0.959-1.028,1.879-2.086,2.61-3.296c0.556-0.919,0.964-1.897,1.208-2.943
	c0.21-0.899-0.021-1.208-0.946-1.228c-0.764-0.015-1.491,0.175-2.184,0.5c-1.25,0.59-2.252,1.49-3.104,2.552
	c-1.175,1.462-2.215,3.022-3.134,4.654c-1.389,2.468-2.706,4.974-3.822,7.582c-0.058,0.137-0.069,0.292-0.103,0.438
	c-0.022,0.005-0.047,0.005-0.065,0.018c-0.008,0.004,0,0.032,0.001,0.051C116.086,29.631,116.102,29.604,116.117,29.577z
	 M239.497,73.414c1.058-0.094,2.069-0.164,3.075-0.273c1.271-0.139,2.502-0.451,3.679-0.965c0.975-0.428,1.953-0.848,2.931-1.275
	c0.33-0.145,0.689-0.252,0.98-0.455c0.808-0.566,1.611-1.15,2.368-1.779c0.455-0.379,0.822-0.865,1.229-1.301
	c0.217-0.23,0.271-0.475,0.137-0.783c-0.237-0.545-0.446-1.105-0.656-1.662c-0.29-0.762-0.789-1.324-1.5-1.725
	c-0.617-0.348-1.273-0.604-1.951-0.768c-2.029-0.488-4.106-0.646-6.18-0.754c-2.938-0.15-5.875-0.068-8.805,0.252
	c-1.862,0.203-3.711,0.486-5.548,0.85c-1.865,0.367-3.682,0.906-5.501,1.445c-1.121,0.332-2.244,0.66-3.364,0.992
	c-0.315,0.096-0.332,0.164-0.13,0.408c1.454,1.771,3.22,3.17,5.206,4.293c1.588,0.898,3.296,1.537,5.009,2.141
	c1.545,0.545,3.149,0.881,4.793,1.004C236.691,73.166,238.113,73.295,239.497,73.414z M90.111,57.748
	c-0.027-0.289-0.047-0.393-0.047-0.496c0.005-1.936-0.746-3.578-1.975-5.029c-0.279-0.334-0.293-0.342-0.633-0.133
	c-1.286,0.789-2.598,1.525-3.926,2.244c-1.829,0.99-3.619,2.055-5.42,3.096c-1.803,1.045-3.506,2.238-5.164,3.496
	c-1.066,0.811-1.916,1.824-2.755,2.855c-0.776,0.953-1.405,1.984-1.963,3.08c-0.598,1.17-0.517,2.367-0.306,3.568
	c0.079,0.461,0.402,0.891,0.657,1.309c0.101,0.164,0.303,0.305,0.487,0.367c0.541,0.178,1.088,0.361,1.647,0.451
	c1.803,0.287,3.572,0.029,5.321-0.42c1.948-0.502,3.79-1.277,5.541-2.254c1.387-0.775,2.699-1.67,3.894-2.723
	c1.401-1.234,2.53-2.688,3.39-4.34C89.716,61.178,90.078,59.408,90.111,57.748z M186.128,51.109c0.065,0.668,0.073,1.346,0.212,2
	c0.174,0.828,0.188,0.873,1.113,0.602c0.099-0.027,0.192-0.08,0.282-0.133c0.629-0.373,1.221-0.793,1.682-1.375
	c0.516-0.65,1.036-1.301,1.536-1.965c0.984-1.314,1.831-2.717,2.59-4.168c0.453-0.874,0.823-1.792,1.218-2.696
	c0.141-0.321,0.087-0.39-0.263-0.471c-0.252-0.059-0.512-0.092-0.758-0.172c-0.914-0.306-1.787-0.684-2.502-1.372
	c-0.383-0.368-0.455-0.356-0.826,0.038c-0.607,0.646-1.145,1.353-1.543,2.146c-0.559,1.113-1.146,2.218-1.631,3.363
	C186.671,48.244,186.175,49.615,186.128,51.109z M164.494,33.436c0.072-0.113,0.148-0.191,0.18-0.285
	c0.316-0.957,0.844-1.844,0.897-2.887c0.016-0.305,0.122-0.612,0.218-0.907c0.204-0.642,0.436-1.276,0.644-1.918
	c0.071-0.219,0.194-0.479,0.135-0.668c-0.13-0.415-0.058-0.829-0.122-1.235c-0.13-0.82-0.281-1.635-0.44-2.45
	c-0.042-0.223-0.142-0.248-0.308-0.08c-0.254,0.258-0.51,0.521-0.72,0.815c-0.944,1.303-1.378,2.79-1.475,4.375
	C163.389,30.009,163.616,31.77,164.494,33.436z M195.9,39.51c-0.011-0.855-0.38-1.568-0.766-2.273
	c-0.201-0.367-0.436-0.429-0.739-0.138c-0.335,0.319-0.645,0.677-0.889,1.066c-0.217,0.344-0.363,0.745-0.471,1.138
	c-0.143,0.516,0.048,0.94,0.434,1.324c0.455,0.455,1.019,0.57,1.613,0.644c0.325,0.04,0.415,0.002,0.503-0.331
	C195.712,40.469,195.798,39.987,195.9,39.51z M150.648,86.115c-0.477-0.182-0.939-0.152-1.411-0.021
	c-0.21,0.055-0.45,0.027-0.673,0.012c-0.053-0.008,0.115-0.234-0.124-0.229c-0.176,0.008-0.167,0.16-0.249,0.229
	c-0.088,0.07-0.234,0.08-0.357,0.094c-0.178,0.018-0.359-0.004-0.535,0.021c-0.514,0.084-1.01,0.096-1.529-0.02
	c-0.396-0.088-0.824-0.037-1.238-0.035c-0.064,0-0.164,0.053-0.186,0.107c-0.096,0.225-0.301,0.148-0.461,0.199
	c-0.352,0.117-0.759-0.225-1.075,0.139c0.354,0.012,0.705,0.029,1.059,0.037c0.152,0.002,0.306-0.004,0.458-0.012
	c1.113-0.057,2.227-0.092,3.336-0.18C148.66,86.377,149.653,86.23,150.648,86.115z M151.429,86.02
	c0.18-0.035,0.458-0.088,0.735-0.143c0.467-0.09,0.969-0.051,1.386-0.318c0.093-0.061-0.212-0.104-1.443,0.094
	c-0.229,0.033-0.46,0.047-0.69,0.086c-0.099,0.016-0.191,0.07-0.285,0.113c-0.018,0.006-0.045,0.051-0.039,0.061
	c0.021,0.033,0.048,0.066,0.081,0.082C151.221,86.008,151.273,86.004,151.429,86.02z M157.388,86.154
	c0,0.006-0.002,0.014-0.002,0.018c-0.05-0.002-0.109-0.025-0.149-0.004c-0.057,0.027-0.13,0.08-0.138,0.131
	c-0.006,0.039,0.076,0.135,0.12,0.135c0.223,0.004,0.448-0.012,0.669-0.031c0.041-0.004,0.078-0.045,0.117-0.068
	c-0.034-0.035-0.062-0.088-0.102-0.098C157.735,86.201,157.562,86.18,157.388,86.154z M155.263,85.398
	c0.172-0.025,0.376-0.045,0.572-0.088c0.062-0.016,0.107-0.1,0.159-0.148c-0.058-0.033-0.119-0.105-0.171-0.098
	c-0.25,0.043-0.496,0.105-0.741,0.17c-0.027,0.006-0.046,0.066-0.062,0.104c-0.002,0.006,0.037,0.037,0.061,0.041
	C155.129,85.389,155.181,85.389,155.263,85.398z M147.842,87.328c-0.341-0.078-0.68-0.16-1.018,0.002
	c-0.004,0.002,0.004,0.045,0.013,0.047C147.18,87.492,147.509,87.408,147.842,87.328z M156.479,85.205
	c0.086-0.045,0.188-0.104,0.289-0.16c-0.05-0.041-0.117-0.125-0.145-0.111c-0.105,0.045-0.196,0.117-0.291,0.182
	C156.369,85.137,156.409,85.162,156.479,85.205z M152.02,85.418c-0.107,0-0.205,0-0.304,0.004c-0.007,0-0.011,0.043-0.015,0.066
	c0.102,0,0.203-0.004,0.303-0.008C152.008,85.48,152.01,85.457,152.02,85.418z M152.702,85.281
	c-0.032,0.014-0.067,0.021-0.101,0.031c0.023,0.004,0.045,0.014,0.068,0.008c0.034-0.002,0.068-0.018,0.104-0.025
	C152.75,85.289,152.727,85.285,152.702,85.281z M146.134,87.447c-0.044,0.014-0.088,0.031-0.131,0.047
	c0.039,0.016,0.081,0.047,0.116,0.041c0.053-0.008,0.103-0.041,0.153-0.062C146.226,87.465,146.181,87.455,146.134,87.447z
	 M163.354,84.674c-0.04-0.016-0.076-0.039-0.116-0.049c-0.02-0.004-0.045,0.014-0.065,0.021c0.016,0.025,0.037,0.07,0.052,0.07
	C163.267,84.713,163.311,84.691,163.354,84.674z M149.414,85.764c-0.021-0.01-0.041-0.021-0.061-0.018
	c-0.013,0.002-0.021,0.027-0.031,0.041c0.021,0,0.043,0.006,0.062,0C149.396,85.787,149.403,85.771,149.414,85.764z M163.955,84.492
	c-0.048-0.006-0.093-0.014-0.141-0.025c-0.002,0.035-0.006,0.064-0.011,0.098c0.05-0.006,0.098-0.012,0.146-0.02
	C163.955,84.545,163.953,84.512,163.955,84.492z M135.357,86.248l-0.042-0.029l-0.012,0.035L135.357,86.248z M149.943,85.777
	c-0.047-0.01-0.071-0.014-0.098-0.023c0.006,0.016,0.012,0.037,0.018,0.037C149.882,85.793,149.902,85.787,149.943,85.777z
	 M164.661,84.361c-0.019-0.018-0.039-0.051-0.051-0.043c-0.044,0.008-0.083,0.027-0.124,0.047c0.017,0.014,0.036,0.043,0.051,0.043
	C164.581,84.4,164.62,84.377,164.661,84.361z M136.002,86.398l-0.046-0.025l-0.011,0.033L136.002,86.398z M135.674,87.209
	c0.018-0.006,0.035-0.01,0.052-0.018c-0.015-0.008-0.028-0.025-0.046-0.031c-0.018-0.002-0.035,0.014-0.053,0.018
	C135.642,87.191,135.656,87.199,135.674,87.209z"/>
<path fill-rule="evenodd" clip-rule="evenodd" d="M154.165,87.465c-0.111-0.691-0.686-0.482-1.165-0.566
	c0.471-0.387,0.993-0.416,1.514-0.436c0.095-0.004,0.227,0.023,0.282,0.09c0.172,0.197,0.367,0.264,0.622,0.234
	c0.104-0.014,0.207,0.053,0.141,0.193c-0.038,0.084-0.076,0.217-0.137,0.229c-0.421,0.096-0.85,0.164-1.275,0.24L154.165,87.465z
	 M154.428,86.863c-0.045-0.023-0.088-0.061-0.129-0.061c-0.043,0-0.084,0.041-0.126,0.064c0.042,0.023,0.085,0.064,0.126,0.062
	C154.342,86.928,154.383,86.887,154.428,86.863z"/>
<path fill-rule="evenodd" clip-rule="evenodd" d="M151.893,87.107c-0.152,0.01-0.305,0.025-0.455,0.025
	c-0.039,0-0.074-0.049-0.111-0.078c0.028-0.031,0.055-0.084,0.088-0.088c0.23-0.031,0.459-0.045,0.688-0.074
	c0.126-0.02,0.25-0.068,0.375-0.07c0.053-0.004,0.106,0.076,0.16,0.119c-0.044,0.051-0.082,0.139-0.132,0.145
	c-0.2,0.031-0.405,0.033-0.609,0.047C151.896,87.125,151.896,87.115,151.893,87.107z"/>
<path fill-rule="evenodd" clip-rule="evenodd" d="M154.146,87.449c-0.281,0.029-0.561,0.084-0.841,0.078
	c-0.097,0-0.202-0.137-0.287-0.227c-0.024-0.025,0.015-0.158,0.028-0.158c0.18-0.01,0.359-0.002,0.539,0
	c-0.022,0.117-0.26,0.316,0.123,0.268c0.146-0.02,0.303,0.033,0.456,0.055L154.146,87.449z"/>
<path fill-rule="evenodd" clip-rule="evenodd" d="M150.119,87.469c0.357-0.02,0.717-0.039,1.074-0.043
	c0.033,0,0.096,0.109,0.089,0.162c-0.009,0.064-0.091,0.178-0.115,0.172c-0.345-0.092-0.688-0.201-1.028-0.305L150.119,87.469z"/>
<path fill-rule="evenodd" clip-rule="evenodd" d="M146.962,87.98c0.228-0.182,0.437-0.328,0.708-0.232
	c0.068,0.025,0.16,0.148,0.146,0.203c-0.02,0.074-0.133,0.184-0.195,0.178C147.406,88.104,147.195,88.039,146.962,87.98z"/>
<path fill-rule="evenodd" clip-rule="evenodd" d="M113.617,52.867c0.039,0.057,0.122,0.146,0.109,0.164
	c-0.194,0.26-0.342,0.582-0.73,0.609l0.016,0.018c0.001-0.057,0.001-0.115,0.002-0.174l-0.021,0.025
	c0.113-0.111,0.226-0.225,0.338-0.338l-0.027,0.027c0.061-0.062,0.122-0.125,0.184-0.186l-0.029,0.027
	c0.061-0.061,0.121-0.123,0.184-0.186L113.617,52.867z"/>
<path fill-rule="evenodd" clip-rule="evenodd" d="M149.996,88.008c-0.238,0.01-0.383-0.125-0.374-0.297
	c0.002-0.041,0.039-0.09,0.074-0.107c0.073-0.037,0.563,0.307,0.522,0.336C150.145,87.992,150.037,87.996,149.996,88.008z"/>
<path fill-rule="evenodd" clip-rule="evenodd" d="M176.91,53.498c0.026,0.078,0.097,0.209,0.074,0.229
	c-0.169,0.141-0.357,0.258-0.541,0.383l0.019,0.023c-0.002-0.061-0.002-0.121-0.006-0.18l-0.017,0.021
	c0.06-0.061,0.122-0.119,0.182-0.182l-0.025,0.025c0.06-0.059,0.12-0.119,0.18-0.178l-0.024,0.025
	c0.06-0.061,0.122-0.121,0.182-0.184L176.91,53.498z"/>
<path fill-rule="evenodd" clip-rule="evenodd" d="M137.15,87.373c0.046,0.018,0.12,0.035,0.178,0.078
	c0.03,0.023,0.045,0.092,0.035,0.133c-0.008,0.041-0.064,0.105-0.086,0.102c-0.118-0.025-0.232-0.064-0.346-0.105
	c-0.044-0.018-0.082-0.053-0.121-0.084c0.055-0.029,0.106-0.07,0.164-0.094C137.02,87.383,137.074,87.383,137.15,87.373z"/>
<path fill-rule="evenodd" clip-rule="evenodd" d="M139.917,87.611c0.236,0,0.472-0.002,0.709,0c0.007,0,0.014,0.031,0.02,0.051
	c-0.234,0.027-0.47,0.055-0.704,0.078C139.934,87.697,139.925,87.654,139.917,87.611z"/>
<path fill-rule="evenodd" clip-rule="evenodd" d="M120.527,47.695c-0.092,0.02-0.17,0.061-0.216,0.037
	c-0.052-0.027-0.112-0.117-0.104-0.168c0.018-0.129,0.123-0.164,0.225-0.092C120.48,47.506,120.488,47.596,120.527,47.695z"/>
<path fill-rule="evenodd" clip-rule="evenodd" d="M152.449,87.346l0.022,0.055l0.054-0.025l-0.019,0.018
	c-0.009,0.076,0.002,0.162-0.035,0.217c-0.021,0.033-0.12,0.016-0.183,0.021c0.016-0.039,0.021-0.084,0.044-0.121
	c0.04-0.061,0.085-0.119,0.128-0.178L152.449,87.346z"/>
<path fill-rule="evenodd" clip-rule="evenodd" d="M216.923,39.112c-0.013,0.049-0.009,0.118-0.037,0.141
	c-0.076,0.055-0.168,0.088-0.252,0.129c-0.004-0.092-0.009-0.184-0.013-0.275l-0.023,0.02c0.112,0,0.226,0.002,0.34,0.002
	L216.923,39.112z"/>
<path fill-rule="evenodd" clip-rule="evenodd" d="M149.242,87.863c-0.083,0-0.146,0.01-0.207-0.004
	c-0.039-0.01-0.066-0.057-0.098-0.086c0.068-0.014,0.139-0.039,0.205-0.039C149.172,87.736,149.196,87.801,149.242,87.863z"/>
<path fill-rule="evenodd" clip-rule="evenodd" d="M124.87,23.798c-0.025,0.087-0.025,0.198-0.081,0.256
	c-0.151,0.159-0.189,0.022-0.217-0.106l-0.02,0.028c0.061-0.061,0.121-0.122,0.182-0.182l-0.027,0.021
	c0.06-0.002,0.119-0.003,0.18-0.004L124.87,23.798z"/>
<path fill-rule="evenodd" clip-rule="evenodd" d="M179.573,51.004c-0.072,0.051-0.14,0.102-0.212,0.146
	c-0.006,0.002-0.05-0.041-0.048-0.045c0.052-0.076,0.107-0.15,0.163-0.225C179.499,50.912,179.521,50.939,179.573,51.004z"/>
<path fill-rule="evenodd" clip-rule="evenodd" d="M114.671,51.959c0.13,0.008,0.261,0.016,0.392,0.021l-0.02-0.023
	c-0.126,0.238-0.238,0.113-0.352-0.014L114.671,51.959z"/>
<path fill-rule="evenodd" clip-rule="evenodd" d="M178.774,51.465c0.06,0.029,0.12,0.059,0.18,0.088
	c-0.028,0.027-0.06,0.057-0.088,0.082c-0.025-0.064-0.048-0.127-0.071-0.191L178.774,51.465z"/>
<path fill-rule="evenodd" clip-rule="evenodd" d="M112.834,53.803c0.012,0.215-0.096,0.316-0.307,0.316l0.008,0.014
	c0-0.061-0.001-0.121-0.002-0.182l-0.008,0.023c0.059-0.059,0.117-0.117,0.178-0.176c0,0-0.023,0.02-0.023,0.021
	c0.058-0.002,0.115-0.002,0.172-0.002L112.834,53.803z"/>
<path fill-rule="evenodd" clip-rule="evenodd" d="M152.461,87.332c-0.092,0.027-0.186,0.068-0.281,0.076
	c-0.038,0.002-0.084-0.068-0.125-0.107c0.039-0.018,0.084-0.066,0.117-0.059c0.096,0.023,0.184,0.066,0.277,0.104L152.461,87.332z"
	/>
<path fill-rule="evenodd" clip-rule="evenodd" d="M131.67,86.959c0.023,0.064,0.045,0.123,0.065,0.182
	c-0.042,0.01-0.098,0.039-0.124,0.025c-0.039-0.025-0.057-0.084-0.084-0.127C131.564,87.016,131.604,86.996,131.67,86.959z"/>
<path fill-rule="evenodd" clip-rule="evenodd" d="M155.903,86.861c0.023,0.039,0.064,0.08,0.064,0.121s-0.039,0.084-0.061,0.127
	c-0.022-0.041-0.06-0.084-0.062-0.127C155.846,86.943,155.883,86.9,155.903,86.861z"/>
<path fill-rule="evenodd" clip-rule="evenodd" d="M146.651,88.117c-0.07,0.018-0.14,0.039-0.21,0.061l0.02,0.02
	c-0.031-0.037-0.078-0.072-0.09-0.117c-0.019-0.059-0.008-0.125-0.01-0.186c0.064,0.016,0.146,0.012,0.191,0.049
	c0.049,0.045,0.067,0.127,0.1,0.191L146.651,88.117z"/>
<path fill-rule="evenodd" clip-rule="evenodd" d="M144.723,87.969c-0.043,0-0.089-0.002-0.134-0.006
	c0.017-0.012,0.028-0.027,0.046-0.035c0.023-0.004,0.049-0.004,0.07,0.002C144.715,87.934,144.718,87.955,144.723,87.969z"/>
<path fill-rule="evenodd" clip-rule="evenodd" d="M139.223,87.684c-0.041-0.016-0.083-0.031-0.125-0.047
	c0.021-0.008,0.045-0.027,0.063-0.025c0.044,0.008,0.085,0.025,0.128,0.041C139.267,87.662,139.244,87.67,139.223,87.684z"/>
<path fill-rule="evenodd" clip-rule="evenodd" d="M161.312,86.17c-0.036,0.027-0.074,0.053-0.112,0.078
	c-0.009,0.004-0.031-0.018-0.048-0.027c0.062-0.01,0.12-0.02,0.18-0.031L161.312,86.17z"/>
<path fill-rule="evenodd" clip-rule="evenodd" d="M178.517,51.734c0.05,0.129,0.142,0.26,0.012,0.398l0.021,0.008
	c-0.006-0.143-0.012-0.287-0.021-0.43L178.517,51.734z"/>
<path fill-rule="evenodd" clip-rule="evenodd" d="M138.992,87.914c0.016,0.014,0.033,0.029,0.05,0.047
	c-0.038,0.014-0.076,0.033-0.115,0.041c-0.014,0.002-0.032-0.023-0.051-0.039C138.914,87.945,138.952,87.928,138.992,87.914z"/>
<path fill-rule="evenodd" clip-rule="evenodd" d="M123.256,25.458c0,0.064,0,0.128,0,0.192c-0.015-0.012-0.043-0.029-0.042-0.036
	c0.017-0.046,0.038-0.092,0.058-0.138L123.256,25.458z"/>
<path fill-rule="evenodd" clip-rule="evenodd" d="M125.196,82.107c0.022-0.062,0.046-0.125,0.068-0.189
	c0.027,0.064,0.054,0.131,0.081,0.195l0.02-0.02c-0.062,0-0.125,0-0.188,0.002L125.196,82.107z"/>
<path fill-rule="evenodd" clip-rule="evenodd" d="M217.857,38.499c-0.107,0.051-0.213,0.103-0.319,0.153l0.022,0.019
	c0-0.064-0.004-0.129-0.006-0.191l-0.015,0.02c0.11,0.002,0.223,0.004,0.334,0.006L217.857,38.499z"/>
<path fill-rule="evenodd" clip-rule="evenodd" d="M175.973,54.58c-0.021,0.059-0.044,0.115-0.064,0.172
	c-0.026-0.059-0.054-0.117-0.08-0.176l-0.02,0.023c0.062,0,0.122,0,0.182,0L175.973,54.58z"/>
<path fill-rule="evenodd" clip-rule="evenodd" d="M181.646,48.678c0.016-0.055,0.027-0.109,0.039-0.164
	c0.013,0.018,0.038,0.043,0.033,0.049c-0.028,0.033-0.062,0.064-0.093,0.094L181.646,48.678z"/>
<path fill-rule="evenodd" clip-rule="evenodd" d="M207.816,48.156c0,0.049,0,0.096,0,0.143c0.008-0.055,0.017-0.107,0.022-0.16
	L207.816,48.156z"/>
<polygon fill-rule="evenodd" clip-rule="evenodd" points="129.198,85.779 129.229,85.848 129.205,85.799 "/>
<polygon fill-rule="evenodd" clip-rule="evenodd" points="146.441,88.178 146.41,88.221 146.461,88.197 "/>
<polygon fill-rule="evenodd" clip-rule="evenodd" points="146.652,88.135 146.639,88.174 146.651,88.117 "/>
<polygon fill-rule="evenodd" clip-rule="evenodd" points="129.174,86.197 129.197,86.25 129.144,86.248 "/>
<path fill-rule="evenodd" clip-rule="evenodd" d="M130.488,86.791c-0.029-0.029-0.062-0.057-0.094-0.084
	c0.025,0.035,0.053,0.066,0.078,0.104L130.488,86.791z"/>
<path fill-rule="evenodd" clip-rule="evenodd" d="M131.111,86.789c0.002-0.064,0.003-0.127,0.004-0.189l-0.016-0.025
	c-0.002,0.074-0.005,0.146-0.008,0.219L131.111,86.789z"/>
<polygon fill-rule="evenodd" clip-rule="evenodd" points="130.473,86.811 130.514,86.797 130.488,86.791 "/>
<polygon fill-rule="evenodd" clip-rule="evenodd" points="131.092,86.793 131.141,86.799 131.111,86.789 "/>
<path fill-rule="evenodd" clip-rule="evenodd" d="M133.275,86.971c0.021-0.002,0.045-0.004,0.066-0.006
	c-0.016-0.004-0.031-0.01-0.047-0.014L133.275,86.971z"/>
<path fill-rule="evenodd" clip-rule="evenodd" d="M152.525,87.375c0.01,0.008,0.021,0.021,0.033,0.029
	c-0.02-0.004-0.035-0.006-0.052-0.012L152.525,87.375z"/>
<path fill-rule="evenodd" clip-rule="evenodd" d="M123.748,25.04c0.006-0.005,0.014-0.011,0.02-0.018L123.748,25.04z"/>
<path fill-rule="evenodd" clip-rule="evenodd" d="M123.271,25.475c0.039-0.007,0.078-0.014,0.117-0.021
	c-0.044,0.001-0.09,0.002-0.133,0.003L123.271,25.475z"/>
<path fill-rule="evenodd" clip-rule="evenodd" d="M122.643,26.003c0.015,0.008,0.029,0.015,0.043,0.023
	c-0.007-0.005-0.014-0.01-0.021-0.015L122.643,26.003z"/>
<path fill-rule="evenodd" clip-rule="evenodd" d="M121.6,27.228c-0.053,0.051-0.105,0.1-0.158,0.151l0.011,0.024
	c0-0.057-0.001-0.115-0.001-0.173l-0.027,0.021c0.062-0.002,0.127-0.003,0.189-0.003L121.6,27.228z"/>
<path fill-rule="evenodd" clip-rule="evenodd" d="M121.441,27.379c-0.061,0.059-0.119,0.119-0.178,0.179l0.023,0.011
	c0.055-0.056,0.11-0.111,0.165-0.166L121.441,27.379z"/>
<path fill-rule="evenodd" clip-rule="evenodd" d="M217.862,38.33c-0.002,0.056-0.005,0.112-0.005,0.169l0.017,0.006
	c0.002-0.061,0.002-0.121,0.002-0.182L217.862,38.33z"/>
<polygon fill-rule="evenodd" clip-rule="evenodd" points="215.017,40.465 215.032,40.527 215.015,40.487 "/>
<polygon fill-rule="evenodd" clip-rule="evenodd" points="209.441,46.457 209.46,46.426 209.434,46.452 "/>
<polygon fill-rule="evenodd" clip-rule="evenodd" points="209.434,46.452 209.406,46.485 209.441,46.457 "/>
<path fill-rule="evenodd" clip-rule="evenodd" d="M207.839,48.139c0.009,0.014,0.018,0.025,0.025,0.039
	c-0.015-0.008-0.031-0.014-0.048-0.021L207.839,48.139z"/>
<path fill-rule="evenodd" clip-rule="evenodd" d="M181.626,48.656c-0.05,0.055-0.1,0.111-0.149,0.166l0.02,0.016
	c-0.027-0.127,0.037-0.166,0.15-0.16L181.626,48.656z"/>
<path fill-rule="evenodd" clip-rule="evenodd" d="M143.803,48.977c-0.021-0.041-0.043-0.08-0.054-0.123
	c-0.002-0.012,0.036-0.033,0.056-0.049l-0.022-0.014c0,0.064,0,0.131-0.001,0.193L143.803,48.977z"/>
<path fill-rule="evenodd" clip-rule="evenodd" d="M181.333,48.963c0.054-0.041,0.109-0.084,0.163-0.125l-0.02-0.016
	c-0.053,0.047-0.106,0.092-0.158,0.141H181.333z"/>
<path fill-rule="evenodd" clip-rule="evenodd" d="M124.868,23.641c0.036,0.052,0.198,0.102,0.002,0.158l0.017,0.014
	c0.002-0.061,0.002-0.123,0.004-0.184L124.868,23.641z"/>
<path fill-rule="evenodd" clip-rule="evenodd" d="M123.768,25.021c0.011,0.01,0.021,0.02,0.033,0.029
	c-0.018-0.004-0.035-0.008-0.053-0.011L123.768,25.021z"/>
<path fill-rule="evenodd" clip-rule="evenodd" d="M176.443,54.109c-0.05,0.053-0.104,0.105-0.155,0.158l0.018,0.021
	c0-0.061-0.002-0.119-0.004-0.18l-0.02,0.018c0.06,0.002,0.119,0.004,0.18,0.006L176.443,54.109z"/>
<path fill-rule="evenodd" clip-rule="evenodd" d="M176.288,54.268c-0.052,0.053-0.103,0.105-0.154,0.158l0.017,0.02
	c-0.002-0.062-0.004-0.121-0.004-0.182l-0.021,0.021c0.062,0.002,0.121,0.002,0.18,0.004L176.288,54.268z"/>
<path fill-rule="evenodd" clip-rule="evenodd" d="M176.134,54.426c-0.054,0.053-0.107,0.104-0.161,0.154l0.018,0.02
	c0-0.059,0-0.117-0.002-0.176l-0.018,0.016c0.06,0.002,0.119,0.004,0.18,0.006L176.134,54.426z"/>
<path fill-rule="evenodd" clip-rule="evenodd" d="M170.034,80.861c0.059,0,0.113,0,0.169,0l0.013-0.021c-0.063,0-0.129,0-0.192,0
	L170.034,80.861z"/>
<path fill-rule="evenodd" clip-rule="evenodd" d="M125.973,82.576c0.047-0.066,0.093-0.16,0.145-0.004l0.021-0.018
	c-0.061,0-0.119,0-0.18,0L125.973,82.576z"/>
<path fill-rule="evenodd" clip-rule="evenodd" d="M126.117,82.572c0.055,0.055,0.11,0.107,0.164,0.16
	c0.001,0,0.018-0.023,0.018-0.023c-0.053-0.051-0.107-0.104-0.16-0.154L126.117,82.572z"/>
<polygon fill-rule="evenodd" clip-rule="evenodd" points="128.027,83.656 128.035,83.629 128.016,83.658 "/>
<polygon fill-rule="evenodd" clip-rule="evenodd" points="128.016,83.658 127.986,83.684 128.027,83.656 "/>
<polygon fill-rule="evenodd" clip-rule="evenodd" points="125.961,84.459 125.938,84.406 125.947,84.443 "/>
<path fill-rule="evenodd" clip-rule="evenodd" d="M125.947,84.443c0.012,0.016,0.021,0.031,0.034,0.047
	c-0.007-0.01-0.015-0.02-0.021-0.031L125.947,84.443z"/>
<path fill-rule="evenodd" clip-rule="evenodd" d="M181.116,49.094c0.072-0.043,0.145-0.088,0.217-0.131h-0.015
	c-0.063,0.037-0.126,0.072-0.189,0.109L181.116,49.094z"/>
<path fill-rule="evenodd" clip-rule="evenodd" d="M181.129,49.072c-0.009,0.014-0.018,0.029-0.027,0.045
	c0.006-0.008,0.01-0.016,0.015-0.023L181.129,49.072z"/>
<path fill-rule="evenodd" clip-rule="evenodd" d="M142.854,49.732c-0.053,0.053-0.105,0.104-0.16,0.154l0.016,0.025
	c-0.002-0.061-0.002-0.121-0.002-0.18l-0.025,0.023c0.062-0.002,0.124-0.002,0.186-0.002L142.854,49.732z"/>
<path fill-rule="evenodd" clip-rule="evenodd" d="M142.693,49.887c-0.052,0.053-0.106,0.104-0.159,0.156l0.015,0.025
	c0.053-0.053,0.105-0.104,0.16-0.156L142.693,49.887z"/>
<path fill-rule="evenodd" clip-rule="evenodd" d="M142.534,50.043c-0.056,0.057-0.112,0.113-0.169,0.17l0.021,0.016
	c0.055-0.053,0.107-0.107,0.162-0.16L142.534,50.043z"/>
<path fill-rule="evenodd" clip-rule="evenodd" d="M206.471,50.049c-0.013,0.041-0.032,0.082-0.038,0.123
	c-0.002,0.014,0.027,0.031,0.042,0.047l-0.009,0.01c0-0.062,0-0.125,0-0.186L206.471,50.049z"/>
<path fill-rule="evenodd" clip-rule="evenodd" d="M115.251,51.818c0.009-0.014,0.018-0.027,0.026-0.041
	c-0.016,0.008-0.029,0.018-0.044,0.027L115.251,51.818z"/>
<path fill-rule="evenodd" clip-rule="evenodd" d="M115.062,51.98c0.062-0.055,0.125-0.109,0.188-0.162l-0.018-0.014
	c-0.063,0.051-0.128,0.102-0.19,0.152L115.062,51.98z"/>
<path fill-rule="evenodd" clip-rule="evenodd" d="M178.528,52.133c0.009,0.002,0.015,0.004,0.021,0.008L178.528,52.133z"/>
<polygon fill-rule="evenodd" clip-rule="evenodd" points="114.291,52.469 114.34,52.449 114.334,52.498 "/>
<path fill-rule="evenodd" clip-rule="evenodd" d="M177.738,52.895c0.01-0.01,0.02-0.02,0.033-0.031
	c-0.021,0.002-0.04,0.004-0.058,0.01L177.738,52.895z"/>
<path fill-rule="evenodd" clip-rule="evenodd" d="M177.714,52.873c-0.052,0.053-0.102,0.105-0.155,0.156l0.018,0.01
	c0.054-0.049,0.107-0.098,0.162-0.145L177.714,52.873z"/>
<path fill-rule="evenodd" clip-rule="evenodd" d="M177.559,53.029c-0.072,0.018-0.146,0.033-0.219,0.051l-0.018-0.01
	c0.086-0.01,0.17-0.021,0.254-0.031L177.559,53.029z"/>
<path fill-rule="evenodd" clip-rule="evenodd" d="M112.996,53.641c-0.055,0.055-0.107,0.109-0.162,0.162l0.018,0.016
	c0.055-0.053,0.107-0.105,0.16-0.16L112.996,53.641z"/>
<path fill-rule="evenodd" clip-rule="evenodd" fill="none" d="M239.497,73.414c-1.384-0.119-2.806-0.248-4.229-0.355
	c-1.644-0.123-3.248-0.459-4.793-1.004c-1.713-0.604-3.421-1.242-5.009-2.141c-1.986-1.123-3.752-2.521-5.206-4.293
	c-0.202-0.244-0.186-0.312,0.13-0.408c1.12-0.332,2.243-0.66,3.364-0.992c1.819-0.539,3.636-1.078,5.501-1.445
	c1.837-0.363,3.686-0.646,5.548-0.85c2.93-0.32,5.866-0.402,8.805-0.252c2.073,0.107,4.15,0.266,6.18,0.754
	c0.678,0.164,1.334,0.42,1.951,0.768c0.711,0.4,1.21,0.963,1.5,1.725c0.21,0.557,0.419,1.117,0.656,1.662
	c0.135,0.309,0.08,0.553-0.137,0.783c-0.406,0.436-0.773,0.922-1.229,1.301c-0.757,0.629-1.561,1.213-2.368,1.779
	c-0.291,0.203-0.65,0.311-0.98,0.455c-0.978,0.428-1.956,0.848-2.931,1.275c-1.177,0.514-2.407,0.826-3.679,0.965
	C241.566,73.25,240.555,73.32,239.497,73.414z"/>
<path fill-rule="evenodd" clip-rule="evenodd" fill="none" d="M90.111,57.748c-0.033,1.66-0.396,3.43-1.25,5.072
	c-0.859,1.652-1.988,3.105-3.39,4.34c-1.194,1.053-2.507,1.947-3.894,2.723c-1.751,0.977-3.593,1.752-5.541,2.254
	c-1.749,0.449-3.519,0.707-5.321,0.42c-0.56-0.09-1.106-0.273-1.647-0.451c-0.185-0.062-0.387-0.203-0.487-0.367
	c-0.255-0.418-0.578-0.848-0.657-1.309c-0.211-1.201-0.292-2.398,0.306-3.568c0.558-1.096,1.187-2.127,1.963-3.08
	c0.839-1.031,1.688-2.045,2.755-2.855c1.658-1.258,3.361-2.451,5.164-3.496c1.801-1.041,3.591-2.105,5.42-3.096
	c1.328-0.719,2.64-1.455,3.926-2.244c0.34-0.209,0.354-0.201,0.633,0.133c1.229,1.451,1.979,3.094,1.975,5.029
	C90.064,57.355,90.084,57.459,90.111,57.748z"/>
<path fill-rule="evenodd" clip-rule="evenodd" fill="none" d="M116.135,29.591c0.033-0.146,0.045-0.302,0.103-0.438
	c1.116-2.607,2.434-5.114,3.822-7.582c0.919-1.632,1.959-3.192,3.134-4.654c0.853-1.062,1.854-1.962,3.104-2.552
	c0.692-0.326,1.42-0.516,2.184-0.5c0.925,0.019,1.156,0.329,0.946,1.228c-0.244,1.045-0.652,2.024-1.208,2.943
	c-0.731,1.21-1.651,2.269-2.61,3.296c-0.85,0.913-1.719,1.807-2.593,2.697c-0.253,0.259-0.559,0.465-0.825,0.712
	c-0.414,0.384-0.855,0.723-1.209,1.188c-0.316,0.418-0.82,0.697-1.25,1.027c-0.223,0.172-0.471,0.313-0.694,0.486
	c-0.884,0.682-1.759,1.374-2.644,2.055c-0.071,0.055-0.184,0.055-0.277,0.08L116.135,29.591z"/>
<path fill-rule="evenodd" clip-rule="evenodd" fill="none" d="M186.128,51.109c0.047-1.494,0.543-2.865,1.11-4.203
	c0.485-1.145,1.072-2.25,1.631-3.363c0.398-0.794,0.936-1.5,1.543-2.146c0.371-0.395,0.443-0.406,0.826-0.038
	c0.715,0.688,1.588,1.066,2.502,1.372c0.246,0.08,0.506,0.113,0.758,0.172c0.35,0.081,0.403,0.149,0.263,0.471
	c-0.395,0.904-0.765,1.822-1.218,2.696c-0.759,1.452-1.605,2.854-2.59,4.168c-0.5,0.664-1.021,1.314-1.536,1.965
	c-0.461,0.582-1.053,1.002-1.682,1.375c-0.09,0.053-0.184,0.105-0.282,0.133c-0.926,0.271-0.939,0.227-1.113-0.602
	C186.201,52.455,186.193,51.777,186.128,51.109z"/>
<path fill-rule="evenodd" clip-rule="evenodd" fill="none" d="M164.494,33.436c-0.878-1.666-1.105-3.427-0.991-5.24
	c0.097-1.585,0.53-3.072,1.475-4.375c0.21-0.293,0.466-0.557,0.72-0.815c0.166-0.168,0.266-0.143,0.308,0.08
	c0.159,0.815,0.311,1.63,0.44,2.45c0.064,0.406-0.008,0.821,0.122,1.235c0.06,0.189-0.063,0.449-0.135,0.668
	c-0.208,0.642-0.439,1.276-0.644,1.918c-0.096,0.295-0.202,0.603-0.218,0.907c-0.054,1.043-0.581,1.93-0.897,2.887
	C164.643,33.245,164.566,33.323,164.494,33.436z"/>
<path fill-rule="evenodd" clip-rule="evenodd" fill="none" d="M195.9,39.51c-0.103,0.477-0.188,0.959-0.314,1.43
	c-0.088,0.333-0.178,0.371-0.503,0.331c-0.595-0.073-1.158-0.188-1.613-0.644c-0.386-0.384-0.576-0.809-0.434-1.324
	c0.107-0.393,0.254-0.794,0.471-1.138c0.244-0.39,0.554-0.747,0.889-1.066c0.304-0.291,0.538-0.229,0.739,0.138
	C195.521,37.942,195.89,38.655,195.9,39.51z"/>
<path fill-rule="evenodd" clip-rule="evenodd" fill="none" d="M150.648,86.115c-0.995,0.115-1.988,0.262-2.986,0.342
	c-1.109,0.088-2.223,0.123-3.336,0.18c-0.152,0.008-0.306,0.014-0.458,0.012c-0.354-0.008-0.705-0.025-1.059-0.037
	c0.316-0.363,0.724-0.021,1.075-0.139c0.16-0.051,0.365,0.025,0.461-0.199c0.021-0.055,0.121-0.107,0.186-0.107
	c0.414-0.002,0.842-0.053,1.238,0.035c0.52,0.115,1.016,0.104,1.529,0.02c0.176-0.025,0.357-0.004,0.535-0.021
	c0.123-0.014,0.27-0.023,0.357-0.094c0.082-0.068,0.073-0.221,0.249-0.229c0.239-0.006,0.071,0.221,0.124,0.229
	c0.223,0.016,0.463,0.043,0.673-0.012C149.709,85.963,150.172,85.934,150.648,86.115z"/>
<path fill-rule="evenodd" clip-rule="evenodd" fill="none" d="M136.957,86.434c0.875,0.139,1.75,0.057,2.624-0.016
	c0.075-0.004,0.163-0.092,0.216-0.07c0.777,0.307,1.587,0.092,2.378,0.154c0.053,0.004,0.107-0.006,0.153,0.01
	c0.037,0.012,0.092,0.055,0.092,0.084c0,0.037-0.044,0.1-0.074,0.102c-0.152,0.025-0.309,0.049-0.462,0.043
	c-0.853-0.033-1.704-0.078-2.556-0.107c-0.621-0.023-1.242-0.033-1.861-0.047c-0.182-0.004-0.368,0.014-0.49-0.164L136.957,86.434z"
	/>
<path fill-rule="evenodd" clip-rule="evenodd" fill="none" d="M159.838,85.328c0,0.049,0.01,0.129-0.006,0.135
	c-0.92,0.332-1.845,0.629-2.977,0.5c1.06-0.326,2.027-0.477,2.998-0.617L159.838,85.328z"/>
<path fill-rule="evenodd" clip-rule="evenodd" fill="none" d="M151.429,86.02c-0.155-0.016-0.208-0.012-0.256-0.025
	c-0.033-0.016-0.06-0.049-0.081-0.082c-0.006-0.01,0.021-0.055,0.039-0.061c0.094-0.043,0.187-0.098,0.285-0.113
	c0.23-0.039,0.461-0.053,0.69-0.086c1.231-0.197,1.536-0.154,1.443-0.094c-0.417,0.268-0.919,0.229-1.386,0.318
	C151.887,85.932,151.608,85.984,151.429,86.02z"/>
<path fill-rule="evenodd" clip-rule="evenodd" fill="none" d="M157.388,86.154c0.174,0.025,0.348,0.047,0.516,0.082
	c0.04,0.01,0.067,0.062,0.102,0.098c-0.039,0.023-0.076,0.064-0.117,0.068c-0.221,0.02-0.446,0.035-0.669,0.031
	c-0.044,0-0.126-0.096-0.12-0.135c0.008-0.051,0.081-0.104,0.138-0.131c0.04-0.021,0.1,0.002,0.149,0.004
	C157.386,86.168,157.388,86.16,157.388,86.154z"/>
<path fill-rule="evenodd" clip-rule="evenodd" fill="none" d="M155.263,85.398c-0.082-0.01-0.134-0.01-0.183-0.02
	c-0.023-0.004-0.062-0.035-0.061-0.041c0.017-0.037,0.035-0.098,0.062-0.104c0.245-0.064,0.491-0.127,0.741-0.17
	c0.052-0.008,0.113,0.064,0.171,0.098c-0.052,0.049-0.098,0.133-0.159,0.148C155.639,85.354,155.435,85.373,155.263,85.398z"/>
<path fill-rule="evenodd" clip-rule="evenodd" fill="none" d="M133.367,86.742c-0.479,0.141-0.923,0.119-1.293-0.27l-0.02,0.025
	c0.477-0.135,0.873,0.117,1.293,0.26L133.367,86.742z"/>
<path fill-rule="evenodd" clip-rule="evenodd" fill="none" d="M147.842,87.328c-0.333,0.08-0.662,0.164-1.005,0.049
	c-0.009-0.002-0.017-0.045-0.013-0.047C147.162,87.168,147.501,87.25,147.842,87.328z"/>
<path fill-rule="evenodd" clip-rule="evenodd" fill="none" d="M156.479,85.205c-0.07-0.043-0.11-0.068-0.146-0.09
	c0.095-0.064,0.186-0.137,0.291-0.182c0.027-0.014,0.095,0.07,0.145,0.111C156.667,85.102,156.565,85.16,156.479,85.205z"/>
<path fill-rule="evenodd" clip-rule="evenodd" fill="none" d="M159.854,85.346c0.317-0.047,0.633-0.096,0.948-0.145l-0.016-0.018
	c-0.271,0.344-0.615,0.197-0.948,0.145L159.854,85.346z"/>
<path fill-rule="evenodd" clip-rule="evenodd" fill="none" d="M160.802,85.201c0.162-0.041,0.324-0.092,0.487-0.127
	c0.034-0.006,0.074,0.047,0.114,0.072c-0.036,0.023-0.072,0.07-0.109,0.07c-0.168-0.006-0.339-0.021-0.508-0.033L160.802,85.201z"/>
<path fill-rule="evenodd" clip-rule="evenodd" fill="none" d="M152.02,85.418c-0.01,0.039-0.012,0.062-0.016,0.062
	c-0.1,0.004-0.201,0.008-0.303,0.008c0.004-0.023,0.008-0.066,0.015-0.066C151.814,85.418,151.912,85.418,152.02,85.418z"/>
<path fill-rule="evenodd" clip-rule="evenodd" fill="none" d="M150.143,85.57c0.074-0.002,0.148-0.01,0.221-0.002
	c0.119,0.014,0.24,0.037,0.359,0.057c-0.117,0.004-0.24,0.02-0.357,0.012c-0.07-0.008-0.137-0.053-0.204-0.082L150.143,85.57z"/>
<path fill-rule="evenodd" clip-rule="evenodd" fill="none" d="M142.549,50.068c-0.055,0.053-0.107,0.107-0.162,0.16
	c-0.114-0.1-0.151-0.209-0.009-0.309c0.103-0.072,0.219-0.125,0.329-0.188c0,0.059,0,0.119,0.002,0.18
	C142.654,49.965,142.602,50.016,142.549,50.068z"/>
<path fill-rule="evenodd" clip-rule="evenodd" fill="none" d="M152.702,85.281c0.024,0.004,0.048,0.008,0.071,0.014
	c-0.035,0.008-0.069,0.023-0.104,0.025c-0.023,0.006-0.045-0.004-0.068-0.008C152.635,85.303,152.67,85.295,152.702,85.281z"/>
<path fill-rule="evenodd" clip-rule="evenodd" fill="none" d="M146.134,87.447c0.047,0.008,0.092,0.018,0.139,0.025
	c-0.051,0.021-0.101,0.055-0.153,0.062c-0.035,0.006-0.077-0.025-0.116-0.041C146.046,87.479,146.09,87.461,146.134,87.447z"/>
<path fill-rule="evenodd" clip-rule="evenodd" fill="none" d="M136.977,86.422c-0.076,0.006-0.152,0.02-0.23,0.018
	c-0.07,0-0.14-0.016-0.209-0.027c0.066-0.016,0.134-0.047,0.2-0.041c0.073,0.006,0.146,0.039,0.22,0.062L136.977,86.422z"/>
<path fill-rule="evenodd" clip-rule="evenodd" fill="none" d="M162.266,84.938c0.104-0.053,0.204-0.113,0.312-0.152
	c0.02-0.012,0.067,0.041,0.102,0.066c-0.021,0.01-0.044,0.027-0.066,0.029c-0.122,0.012-0.246,0.021-0.367,0.035L162.266,84.938z"/>
<path fill-rule="evenodd" clip-rule="evenodd" fill="none" d="M163.354,84.678c-0.044,0.014-0.088,0.035-0.13,0.039
	c-0.015,0-0.036-0.045-0.052-0.07c0.021-0.008,0.046-0.025,0.065-0.021C163.278,84.635,163.314,84.658,163.354,84.678z"/>
<path fill-rule="evenodd" clip-rule="evenodd" fill="none" d="M149.414,85.764c-0.011,0.008-0.018,0.023-0.029,0.023
	c-0.02,0.006-0.041,0-0.062,0c0.01-0.014,0.019-0.039,0.031-0.041C149.373,85.742,149.393,85.754,149.414,85.764z"/>
<path fill-rule="evenodd" clip-rule="evenodd" fill="none" d="M126.139,82.555c0.053,0.051,0.107,0.104,0.16,0.154
	c-0.002,0.053-0.006,0.107-0.008,0.16l0.021-0.02c-0.207,0.008-0.311-0.107-0.354-0.295
	C126.02,82.555,126.078,82.555,126.139,82.555z"/>
<path fill-rule="evenodd" clip-rule="evenodd" fill="none" d="M162.246,84.916c-0.034,0.031-0.064,0.086-0.102,0.09
	c-0.064,0.01-0.132-0.014-0.196-0.023c0.058-0.021,0.113-0.047,0.174-0.057c0.047-0.008,0.097,0.008,0.144,0.012L162.246,84.916z"/>
<path fill-rule="evenodd" clip-rule="evenodd" fill="none" d="M163.955,84.492c-0.002,0.02,0,0.053-0.006,0.053
	c-0.048,0.008-0.096,0.014-0.146,0.02c0.005-0.033,0.009-0.062,0.011-0.098C163.862,84.479,163.907,84.486,163.955,84.492z"/>
<path fill-rule="evenodd" clip-rule="evenodd" fill="none" d="M113.012,53.658c-0.053,0.055-0.105,0.107-0.16,0.16
	c-0.057,0-0.114,0-0.172,0.002c0.036-0.188,0.131-0.314,0.334-0.336C113.013,53.543,113.013,53.602,113.012,53.658z"/>
<path fill-rule="evenodd" clip-rule="evenodd" fill="none" d="M113.33,53.172c-0.112,0.113-0.225,0.227-0.338,0.338
	C113.018,53.311,113.123,53.189,113.33,53.172z"/>
<path fill-rule="evenodd" clip-rule="evenodd" fill="none" d="M131.661,86.268c0.12,0.096,0.362-0.02,0.394,0.23l0.02-0.025
	c-0.148-0.033-0.361,0.057-0.394-0.199L131.661,86.268z"/>
<path fill-rule="evenodd" clip-rule="evenodd" fill="none" d="M121.452,27.403c-0.055,0.055-0.11,0.11-0.165,0.166
	c-0.043-0.067-0.089-0.133-0.134-0.199c0.099-0.046,0.198-0.093,0.298-0.14C121.451,27.288,121.452,27.346,121.452,27.403z"/>
<path fill-rule="evenodd" clip-rule="evenodd" fill="none" d="M133.396,85.791c0.017,0.035,0.034,0.07,0.052,0.105
	c-0.014-0.033-0.026-0.062-0.039-0.098L133.396,85.791z"/>
<polygon fill-rule="evenodd" clip-rule="evenodd" fill="none" points="135.357,86.248 135.304,86.254 135.315,86.219 "/>
<path fill-rule="evenodd" clip-rule="evenodd" fill="none" d="M165.638,84.115c-0.032,0.029-0.064,0.057-0.097,0.086
	c0.039-0.021,0.078-0.043,0.118-0.066L165.638,84.115z"/>
<path fill-rule="evenodd" clip-rule="evenodd" fill="none" d="M149.943,85.777c-0.041,0.01-0.062,0.016-0.08,0.014
	c-0.006,0-0.012-0.021-0.018-0.037C149.872,85.764,149.896,85.768,149.943,85.777z"/>
<path fill-rule="evenodd" clip-rule="evenodd" fill="none" d="M164.661,84.361c-0.041,0.016-0.08,0.039-0.124,0.047
	c-0.015,0-0.034-0.029-0.051-0.043c0.041-0.02,0.08-0.039,0.124-0.047C164.622,84.311,164.643,84.344,164.661,84.361z"/>
<polygon fill-rule="evenodd" clip-rule="evenodd" fill="none" points="136.002,86.398 135.945,86.406 135.956,86.373 "/>
<path fill-rule="evenodd" clip-rule="evenodd" fill="none" d="M133.408,85.799c-0.058-0.004-0.115-0.012-0.172-0.018
	c0.013,0.008,0.024,0.021,0.035,0.021c0.041,0,0.082-0.008,0.124-0.012L133.408,85.799z"/>
<path fill-rule="evenodd" clip-rule="evenodd" fill="none" d="M131.681,86.273c-0.047-0.002-0.093-0.004-0.14-0.004
	c0.039-0.002,0.082-0.002,0.12-0.002L131.681,86.273z"/>
<path fill-rule="evenodd" clip-rule="evenodd" fill="none" d="M142.902,88.012c-0.041-0.01-0.084-0.018-0.126-0.025
	c0.035,0.01,0.07,0.021,0.106,0.033L142.902,88.012z"/>
<path fill-rule="evenodd" clip-rule="evenodd" fill="none" d="M217.876,38.323c0,0.061,0,0.121-0.002,0.182
	c-0.111-0.002-0.224-0.004-0.334-0.006C217.65,38.44,217.765,38.382,217.876,38.323z"/>
<path fill-rule="evenodd" clip-rule="evenodd" fill="none" d="M216.938,39.127c-0.114,0-0.228-0.002-0.34-0.002
	c0.12-0.042,0.24-0.084,0.361-0.126l-0.023-0.021C216.938,39.028,216.938,39.077,216.938,39.127z"/>
<path fill-rule="evenodd" clip-rule="evenodd" fill="none" d="M135.674,87.209c-0.018-0.01-0.032-0.018-0.047-0.031
	c0.018-0.004,0.035-0.02,0.053-0.018c0.018,0.006,0.031,0.023,0.046,0.031C135.709,87.199,135.691,87.203,135.674,87.209z"/>
<path fill-rule="evenodd" clip-rule="evenodd" fill="none" d="M165.659,84.135c0.028-0.035,0.058-0.066,0.09-0.098
	c0.015-0.014,0.044-0.01,0.064-0.014c-0.015,0.025-0.022,0.064-0.043,0.07c-0.042,0.016-0.089,0.014-0.133,0.021L165.659,84.135z"/>
<path fill-rule="evenodd" clip-rule="evenodd" fill="none" d="M136.133,87.268l-0.014,0.018L136.133,87.268z"/>
<path fill-rule="evenodd" clip-rule="evenodd" fill="none" d="M121.613,27.248c-0.062,0-0.127,0.001-0.189,0.003
	C121.484,27.148,121.549,27.186,121.613,27.248z"/>
<path fill-rule="evenodd" clip-rule="evenodd" fill="none" d="M116.117,29.577c-0.016,0.027-0.031,0.055-0.047,0.083
	c-0.001-0.019-0.009-0.047-0.001-0.051c0.019-0.013,0.043-0.013,0.065-0.018L116.117,29.577z"/>
<path fill-rule="evenodd" clip-rule="evenodd" fill="none" d="M108.134,38.479c-0.007-0.007-0.013-0.014-0.019-0.02L108.134,38.479z
	"/>
<path fill-rule="evenodd" clip-rule="evenodd" fill="none" d="M217.555,38.479c0.002,0.062,0.006,0.127,0.006,0.191
	c-0.008-0.043-0.021-0.082-0.022-0.125C217.536,38.524,217.548,38.5,217.555,38.479z"/>
<path fill-rule="evenodd" clip-rule="evenodd" fill="none" d="M216.959,39c0.003-0.041,0.005-0.082,0.009-0.123
	c-0.011,0.034-0.021,0.067-0.032,0.103L216.959,39z"/>
<path fill-rule="evenodd" clip-rule="evenodd" fill="none" d="M211.104,43.913c0.009,0.014,0.019,0.027,0.028,0.041
	c-0.016-0.008-0.032-0.015-0.049-0.023L211.104,43.913z"/>
<polygon fill-rule="evenodd" clip-rule="evenodd" fill="none" points="207.845,44.535 207.839,44.595 207.837,44.555 "/>
<path fill-rule="evenodd" clip-rule="evenodd" fill="none" d="M143.823,48.693c-0.006-0.006-0.013-0.014-0.019-0.02L143.823,48.693z
	"/>
<path fill-rule="evenodd" clip-rule="evenodd" fill="none" d="M143.781,48.984c0.001-0.062,0.001-0.129,0.001-0.193
	c0.016,0.045,0.034,0.086,0.039,0.133C143.824,48.941,143.796,48.965,143.781,48.984z"/>
<path fill-rule="evenodd" clip-rule="evenodd" fill="none" d="M124.891,23.628c-0.002,0.061-0.002,0.123-0.004,0.184
	c-0.061,0.001-0.12,0.002-0.18,0.004C124.768,23.753,124.829,23.691,124.891,23.628z"/>
<path fill-rule="evenodd" clip-rule="evenodd" fill="none" d="M124.734,23.794c-0.061,0.06-0.121,0.121-0.182,0.182
	C124.613,23.915,124.674,23.854,124.734,23.794z"/>
<path fill-rule="evenodd" clip-rule="evenodd" fill="none" d="M176.621,53.793c-0.06,0.062-0.122,0.121-0.182,0.182
	C176.499,53.914,176.562,53.855,176.621,53.793z"/>
<path fill-rule="evenodd" clip-rule="evenodd" fill="none" d="M112.533,53.951c0.001,0.061,0.002,0.121,0.002,0.182
	C112.535,54.072,112.534,54.012,112.533,53.951z"/>
<path fill-rule="evenodd" clip-rule="evenodd" fill="none" d="M176.462,54.133c-0.061-0.002-0.12-0.004-0.18-0.006
	c0.058-0.059,0.115-0.117,0.174-0.174C176.46,54.012,176.46,54.072,176.462,54.133z"/>
<path fill-rule="evenodd" clip-rule="evenodd" fill="none" d="M176.306,54.289c-0.059-0.002-0.118-0.002-0.18-0.004
	c0.06-0.059,0.117-0.117,0.176-0.176C176.304,54.17,176.306,54.229,176.306,54.289z"/>
<path fill-rule="evenodd" clip-rule="evenodd" fill="none" d="M176.15,54.445c-0.061-0.002-0.12-0.004-0.18-0.006
	c0.058-0.061,0.115-0.117,0.176-0.176C176.146,54.324,176.148,54.383,176.15,54.445z"/>
<path fill-rule="evenodd" clip-rule="evenodd" fill="none" d="M175.988,54.424c0.002,0.059,0.002,0.117,0.002,0.176
	c-0.06,0-0.119,0-0.182,0C175.869,54.541,175.929,54.482,175.988,54.424z"/>
<path fill-rule="evenodd" clip-rule="evenodd" fill="none" d="M133.891,56.572c0.012,0.014,0.021,0.027,0.033,0.043
	c-0.004-0.01-0.012-0.02-0.016-0.029L133.891,56.572z"/>
<path fill-rule="evenodd" clip-rule="evenodd" fill="none" d="M170.023,80.84c0.063,0,0.129,0,0.192,0
	C170.152,80.84,170.087,80.84,170.023,80.84z"/>
<path fill-rule="evenodd" clip-rule="evenodd" fill="none" d="M125.178,82.096c0.062-0.002,0.125-0.002,0.188-0.002
	C125.303,82.094,125.24,82.094,125.178,82.096z"/>
<path fill-rule="evenodd" clip-rule="evenodd" fill="none" d="M126.291,82.869c0.033,0.025,0.065,0.053,0.1,0.076
	c-0.026-0.031-0.053-0.064-0.078-0.096L126.291,82.869z"/>
<path fill-rule="evenodd" clip-rule="evenodd" fill="none" d="M142.867,49.754c-0.062,0-0.123,0-0.186,0.002
	C142.742,49.561,142.806,49.664,142.867,49.754z"/>
<path fill-rule="evenodd" clip-rule="evenodd" fill="none" d="M206.466,50.043c0,0.061,0,0.123,0,0.186
	c-0.067-0.027-0.136-0.053-0.205-0.08l-0.018,0.02C206.317,50.127,206.393,50.084,206.466,50.043z"/>
<path fill-rule="evenodd" clip-rule="evenodd" fill="none" d="M206.261,50.148c-0.006,0.008-0.012,0.014-0.018,0.02L206.261,50.148z
	"/>
<path fill-rule="evenodd" clip-rule="evenodd" fill="none" d="M206.165,50.688c-0.009-0.012-0.015-0.025-0.022-0.039
	c0.004,0.014,0.008,0.025,0.012,0.037L206.165,50.688z"/>
<path fill-rule="evenodd" clip-rule="evenodd" fill="none" d="M113.641,52.855c-0.062,0.062-0.123,0.125-0.184,0.186
	C113.518,52.98,113.578,52.918,113.641,52.855z"/>
<path fill-rule="evenodd" clip-rule="evenodd" fill="none" d="M113.486,53.014c-0.062,0.061-0.123,0.123-0.184,0.186
	C113.363,53.137,113.425,53.074,113.486,53.014z"/>
<path fill-rule="evenodd" clip-rule="evenodd" fill="none" d="M176.933,53.482c-0.06,0.062-0.122,0.123-0.182,0.184
	C176.811,53.605,176.873,53.545,176.933,53.482z"/>
<path fill-rule="evenodd" clip-rule="evenodd" fill="none" d="M176.775,53.641c-0.06,0.059-0.12,0.119-0.18,0.178
	C176.655,53.76,176.716,53.699,176.775,53.641z"/>
<path fill-rule="evenodd" clip-rule="evenodd" fill="none" d="M112.703,53.799c-0.061,0.059-0.119,0.117-0.178,0.176
	C112.584,53.916,112.643,53.857,112.703,53.799z"/>
<path fill-rule="evenodd" clip-rule="evenodd" fill="none" d="M154.428,86.863c-0.045,0.023-0.086,0.064-0.129,0.066
	c-0.041,0.002-0.084-0.039-0.126-0.062c0.042-0.023,0.083-0.064,0.126-0.064C154.34,86.803,154.383,86.84,154.428,86.863z"/>
</svg>
